<?xml version="1.0" encoding="utf-8"?>
<!-- Generator: Adobe Illustrator 24.1.2, SVG Export Plug-In . SVG Version: 6.00 Build 0)  -->
<svg version="1.1" id="Capa_1" xmlns="http://www.w3.org/2000/svg" xmlns:xlink="http://www.w3.org/1999/xlink" x="0px" y="0px"
	 viewBox="0 0 86.2 86.3" style="enable-background:new 0 0 86.2 86.3;" xml:space="preserve">
<style type="text/css">
	.st0{fill:#383838;}
	.st1{fill:#EDEDED;}
</style>
<circle class="st0" cx="43.1" cy="43.1" r="43.1"/>
<g>
	<path class="st1" d="M45.1,16.1c-14,0.1-25.7,10.8-26.8,24.8h-6.4l7.8,13.6l7.8-13.6h-6.1c1.3-13.1,13-22.7,26.1-21.3
		s22.7,13,21.3,26.1c-1.2,12.2-11.4,21.4-23.6,21.4v3.1c15,0,27.1-12.2,27-27.1C72.2,28.2,60.1,16.1,45.1,16.1z"/>
	<g>
		<path class="st1" d="M38.4,40.8c0,0.7-0.2,1.4-0.7,2c-0.5,0.6-1.2,1-2,1.1l0,0c0.8,0.1,1.6,0.4,2.3,0.9c0.5,0.5,0.8,1.2,0.8,2
			c0.1,1.1-0.4,2.1-1.3,2.8c-1.1,0.7-2.4,1.1-3.7,1c-1.2,0-2.4-0.2-3.6-0.7v-2.2c0.5,0.3,1,0.5,1.6,0.6s1.1,0.2,1.7,0.2
			c0.7,0,1.3-0.1,1.9-0.4c0.4-0.3,0.7-0.9,0.6-1.4c0-0.5-0.2-1-0.7-1.2c-0.7-0.3-1.5-0.4-2.3-0.4h-0.9v-2h1c0.7,0,1.4-0.1,2.1-0.4
			c0.5-0.3,0.7-0.8,0.7-1.3c0-0.9-0.6-1.4-1.8-1.4c-0.4,0-0.8,0.1-1.2,0.2c-0.5,0.2-1,0.4-1.4,0.7l-1.2-1.8c1.2-0.8,2.6-1.3,4-1.2
			c1.1-0.1,2.1,0.2,3,0.8C38,39.1,38.4,39.9,38.4,40.8z"/>
		<path class="st1" d="M40,45.1c0-2.5,0.5-4.3,1.5-5.5c1.2-1.3,2.9-1.9,4.7-1.8c0.6,0,1.1,0,1.7,0.1v2.2c-0.5-0.1-1-0.2-1.5-0.2
			c-0.8,0-1.5,0.1-2.2,0.4c-0.5,0.3-1,0.7-1.3,1.2c-0.3,0.7-0.5,1.5-0.5,2.3h0.1c0.6-1,1.6-1.5,2.7-1.4c1-0.1,1.9,0.3,2.6,1
			c0.7,0.8,1,1.8,0.9,2.9c0.1,1.2-0.3,2.3-1.1,3.2c-0.8,0.8-1.9,1.2-3.1,1.2c-0.8,0-1.7-0.2-2.4-0.6c-0.7-0.4-1.3-1.1-1.6-1.9
			C40.2,47.1,40,46.1,40,45.1z M44.5,48.5c0.5,0,1-0.2,1.3-0.6c0.3-0.5,0.5-1,0.5-1.6c0-0.5-0.1-1-0.4-1.4c-0.3-0.4-0.8-0.6-1.3-0.5
			c-0.5,0-1,0.2-1.3,0.5c-0.4,0.3-0.6,0.7-0.6,1.2c0,0.6,0.2,1.2,0.5,1.7C43.4,48.2,43.9,48.5,44.5,48.5z"/>
		<path class="st1" d="M58.6,44.2c0.1,1.7-0.3,3.4-1.1,4.8c-0.7,1.1-2,1.6-3.3,1.6c-1.3,0.1-2.5-0.5-3.2-1.6
			c-0.8-1.4-1.2-3.1-1.1-4.8c-0.1-1.7,0.2-3.4,1.1-4.8c0.7-1.1,2-1.7,3.3-1.6c1.3-0.1,2.5,0.5,3.2,1.6
			C58.3,40.9,58.7,42.5,58.6,44.2z M52.5,44.2c-0.1,1.1,0.1,2.2,0.4,3.3c0.2,0.6,0.7,1,1.3,1s1.1-0.4,1.3-1c0.3-1.1,0.5-2.2,0.4-3.3
			c0.1-1.1-0.1-2.2-0.4-3.3c-0.2-0.6-0.7-1-1.3-1s-1.2,0.4-1.3,1C52.6,42,52.5,43.1,52.5,44.2L52.5,44.2z"/>
		<path class="st1" d="M60,40.7c0-0.5,0.1-1,0.4-1.5c0.3-0.4,0.6-0.8,1.1-1.1c0.4-0.3,1-0.4,1.5-0.4s1,0.1,1.5,0.4
			c0.4,0.3,0.8,0.6,1.1,1.1c0.3,0.4,0.4,1,0.4,1.5s-0.1,1-0.4,1.5c-0.3,0.4-0.6,0.8-1.1,1.1c-0.4,0.3-1,0.4-1.5,0.4
			c-0.8,0-1.5-0.3-2.1-0.8C60.3,42.3,59.9,41.5,60,40.7z M61.6,40.7c0,0.3,0.1,0.7,0.4,0.9c0.2,0.3,0.6,0.4,0.9,0.4
			c0.4,0,0.7-0.1,0.9-0.4c0.2-0.2,0.4-0.6,0.4-0.9c0-0.4-0.1-0.7-0.4-0.9c-0.2-0.3-0.6-0.4-0.9-0.4c-0.3,0-0.7,0.1-0.9,0.4
			C61.7,40.1,61.6,40.4,61.6,40.7z"/>
	</g>
</g>
</svg>
