<?xml version="1.0" encoding="utf-8"?>
<!-- Generator: Adobe Illustrator 24.1.2, SVG Export Plug-In . SVG Version: 6.00 Build 0)  -->
<svg version="1.1" id="Capa_1" xmlns="http://www.w3.org/2000/svg" xmlns:xlink="http://www.w3.org/1999/xlink" x="0px" y="0px"
	 viewBox="0 0 60.7 52.2" style="enable-background:new 0 0 60.7 52.2;" xml:space="preserve">
<style type="text/css">
	.st0{fill:#FFFFFF;}
</style>
<path class="st0" d="M49.3,48.1h-38c-4.2,0-7.6-3.4-7.6-7.6v-6.3c0-1.7-2.8-2.6-2.9-2.6L0,31.3v-4.8h13.9V29H2.5v0.4
	c1.7,0.7,3.8,2.2,3.8,4.7v6.3c0,2.8,2.3,5.1,5.1,5.1h38c2.8,0,5.1-2.3,5.1-5.1v-6.3c0-2.5,2.1-4,3.8-4.7V29H26.6v-2.5h34.2v4.8
	l-0.9,0.3c0,0-2.9,0.9-2.9,2.6v6.3C56.9,44.7,53.5,48.1,49.3,48.1z"/>
<rect x="8.1" y="48.1" transform="matrix(0.2425 -0.9701 0.9701 0.2425 -39.7823 47.841)" class="st0" width="5.2" height="2.5"/>
<rect x="48.7" y="46.7" transform="matrix(0.9701 -0.2426 0.2426 0.9701 -10.4701 13.5885)" class="st0" width="2.5" height="5.2"/>
<path class="st0" d="M27.8,40.5H12.7V22.8h15.2v17.7H27.8z M15.2,38h10.1V25.3H15.2V38z"/>
<rect x="41.8" y="7.6" class="st0" width="5.1" height="2.5"/>
<path class="st0" d="M56.9,27.8h-2.5V6.3c0-2.1-1.7-3.8-3.8-3.8h-1.3c-2.1,0-3.8,1.7-3.8,3.8v2.5H43V6.3C43,2.8,45.9,0,49.3,0h1.3
	c3.5,0,6.3,2.8,6.3,6.3L56.9,27.8z"/>
<rect x="45.5" y="12.7" class="st0" width="2.5" height="3.8"/>
<rect x="40.5" y="12.7" class="st0" width="2.5" height="3.8"/>
<rect x="43" y="19" class="st0" width="2.5" height="3.8"/>
<rect x="38" y="19" class="st0" width="2.5" height="3.8"/>
<rect x="48.1" y="19" class="st0" width="2.5" height="3.8"/>
</svg>
