<?xml version="1.0" encoding="utf-8"?>
<!-- Generator: Adobe Illustrator 24.1.2, SVG Export Plug-In . SVG Version: 6.00 Build 0)  -->
<svg version="1.1" id="Capa_1" xmlns="http://www.w3.org/2000/svg" xmlns:xlink="http://www.w3.org/1999/xlink" x="0px" y="0px"
	 viewBox="0 0 40.5 41.2" style="enable-background:new 0 0 40.5 41.2;" xml:space="preserve">
<style type="text/css">
	.st0{fill:#FFFFFF;}
</style>
<path class="st0" d="M0,0v41.2h40.5V0H0z M20,38.8H2V2.3h18V38.8L20,38.8z M22.2,23.3v-1.2h6.5v1.2H22.2z M28.8,11.4h-6.5v-1h6.5
	V11.4L28.8,11.4z M28.8,12.8v1h-6.5v-1H28.8z M28.8,15.1v1h-6.5v-1H28.8z M28.8,17.4v1h-6.5v-1H28.8z M28.8,19.8v1h-6.5v-1H28.8z
	 M38,38.8H22.3V25H38V38.8z M38,23.3h-7V7.9h-8.7V2.5H38V23.3z"/>
</svg>
