<?xml version="1.0" encoding="utf-8"?>
<!-- Generator: Adobe Illustrator 24.1.2, SVG Export Plug-In . SVG Version: 6.00 Build 0)  -->
<svg version="1.1" id="Capa_1" xmlns="http://www.w3.org/2000/svg" xmlns:xlink="http://www.w3.org/1999/xlink" x="0px" y="0px"
	 viewBox="0 0 52.5 52.8" style="enable-background:new 0 0 52.5 52.8;" xml:space="preserve">
<style type="text/css">
	.st0{fill:#FFFFFF;}
</style>
<path class="st0" d="M51.7,50.4h-6.1c1.1-2,0.4-4.6-1.7-5.7c-0.3-0.2-0.7-0.3-1-0.4c-0.8-1.7-2.5-2.9-4.4-3
	c-1.8-2.5-5.3-3.1-7.8-1.3c-0.1,0.1-0.2,0.2-0.3,0.2c-0.1-2.9,0.1-5.9,0.3-8.8h-0.3c3.9,0,7.2-2.7,8.1-6.4c9.1-3.7,7.4-16.9-2-18.3
	c-2.3-5.6-8.6-8.3-14.2-6c-2.8,1.1-4.9,3.3-6,6c-9.5,1.7-11.2,14.9-2,18.6c0.8,3.8,4.2,6.5,8.1,6.4h0.3c0.3,2.9,0.4,5.9,0.3,8.8
	c-2.7-2-6.4-1.7-8.1,1c-2-0.1-3.8,1.1-4.4,3c-2.2,0.5-3.6,2.8-3.1,5c0.1,0.4,0.2,0.7,0.4,1H1c-0.5-0.1-0.9,0.3-1,0.8
	c0,0.1,0,0.2,0,0.2c0,0.5,0.5,1,1,1h50.4c0.5,0.1,0.9-0.3,1-0.8c0-0.1,0-0.2,0-0.2C52.7,51.1,52.4,50.4,51.7,50.4z M16.2,24.4
	c0-0.3-0.3-0.7-0.7-1C7.8,21,9.1,9.9,17.2,9.2c0.3,0,0.7-0.3,1-0.7c1.4-4.6,6.3-7.1,10.9-5.7c2.7,0.8,4.8,3,5.7,5.7
	c0,0.3,0.7,0.7,1,0.7c8.1,0.7,9.1,11.8,1.7,14.2c-0.3,0-0.7,0.3-0.7,1c-0.5,3.3-3.5,5.6-6.8,5.1c-1-0.1-1.9-0.5-2.7-1.1
	c-0.3,0-0.3-0.3-0.7-0.3s-0.3,0-0.7,0.3c-2.8,2-6.7,1.4-8.7-1.4C16.7,26.3,16.4,25.4,16.2,24.4z M26.4,30.8c0.7,0,1,0.3,1.7,0.7
	c-0.3,3-0.4,6.1-0.3,9.1c-0.1,0.9,0.1,1.8,0.3,2.7c0,0.3-0.3,0.7-0.3,1c-2.2,0.5-3.6,2.8-3.1,5c0.1,0.4,0.2,0.7,0.4,1h-1.7
	c0.8-3.2,1.3-6.5,1.4-9.8c0.1-3-0.1-6.1-0.3-9.1C25.3,31.2,25.7,30.8,26.4,30.8z M8.8,48.4c-0.1-1,0.7-1.9,1.7-2c0.3,0,1-0.3,1-0.7
	c0.3-1.3,1.7-2.1,3-1.7h0.1c0.3,0,1,0,1-0.7c0.6-1.1,1.8-1.7,3-1.7c1.4,0,2.7,0.8,3.4,2c-0.3,2.4-0.7,4.8-1.4,7.1h-9.5
	C9.8,50.4,8.8,49.8,8.8,48.4z M29.1,50.4c-1.1,0-2-1-2-2.1s0.9-2,2-2c0.3,0,0.7,0,0.7-0.3c0.2-0.2,0.3-0.4,0.3-0.7
	c0-2,1.7-3.7,3.7-3.7c1.2,0,2.4,0.6,3,1.7c0.3,0.3,0.7,0.7,1,0.7c1.4-0.3,2.7,0.6,3,2c0,0.3,0.3,0.7,1,0.7c1.1,0.1,1.9,1.1,1.8,2.2
	c-0.1,1.1-1.1,1.9-2.1,1.8H29.1V50.4z"/>
</svg>
