<?xml version="1.0" encoding="utf-8"?>
<!-- Generator: Adobe Illustrator 24.1.2, SVG Export Plug-In . SVG Version: 6.00 Build 0)  -->
<svg version="1.1" id="Calque_1" xmlns="http://www.w3.org/2000/svg" xmlns:xlink="http://www.w3.org/1999/xlink" x="0px" y="0px"
	 viewBox="0 0 704 334.1" style="enable-background:new 0 0 704 334.1;" xml:space="preserve">
<style type="text/css">
	.st0{fill:#69B75C;}
	.st1{fill:#FFFFFF;}
	.st2{fill:url(#SVGID_1_);}
	.st3{fill:url(#SVGID_2_);}
</style>
<path class="st0" d="M2.7,266.7h8.5v30.4H2.7V266.7z M33.9,266.7h8.9l7.2,11.8l7.2-11.8h8.9v30.4h-8.4v-17.4l-7.8,11.9h-0.2
	L42,279.8v17.4h-8.3v-30.5L33.9,266.7z M88.8,266.7h8.9l7.3,11.8l7.3-11.8h8.9v30.4h-8.4v-17.4l-7.8,11.9h-0.2l-7.7-11.8v17.4h-8.3
	C88.8,297.2,88.8,266.7,88.8,266.7z M158.9,297.7c-2.2,0-4.4-0.4-6.5-1.2c-1.9-0.8-3.7-1.9-5.2-3.4c-1.5-1.4-2.6-3.1-3.4-5
	c-0.8-1.9-1.3-4-1.2-6.1v-0.1c0-4.2,1.7-8.3,4.7-11.2c1.5-1.4,3.3-2.6,5.2-3.4c4.2-1.6,8.8-1.6,13,0c1.9,0.8,3.7,1.9,5.2,3.4
	c1.4,1.4,2.6,3.1,3.4,5c0.8,1.9,1.2,4,1.2,6.1v0.1c0,4.2-1.6,8.2-4.7,11.2c-1.5,1.5-3.3,2.6-5.2,3.4
	C163.4,297.3,161.2,297.7,158.9,297.7z M159,290.1c1.1,0,2.2-0.2,3.2-0.7c0.9-0.4,1.8-1,2.4-1.8c0.7-0.8,1.2-1.6,1.6-2.6
	c0.4-1,0.6-2.1,0.6-3.1v-0.1c0-1.1-0.2-2.1-0.6-3.1c-0.4-1-0.9-1.8-1.6-2.6c-0.7-0.8-1.6-1.4-2.5-1.8c-2-0.9-4.3-0.9-6.3,0
	c-1.9,0.9-3.3,2.4-4,4.3c-0.4,1-0.6,2.1-0.5,3.1v0.1c0,1.1,0.2,2.1,0.6,3.1c0.4,1,0.9,1.8,1.6,2.6c0.7,0.8,1.5,1.4,2.5,1.8
	C156.8,289.9,157.9,290.1,159,290.1L159,290.1z M196.9,266.7h15.6c1.7,0,3.3,0.2,4.9,0.7c1.3,0.4,2.4,1.1,3.4,2
	c0.6,0.6,1.1,1.3,1.4,2.1c0.4,0.9,0.5,1.8,0.5,2.8v0.1c0.1,1.5-0.4,3.1-1.3,4.3c-0.9,1.1-2,2-3.4,2.5c1.7,0.5,3.2,1.4,4.4,2.6
	c1.2,1.3,1.7,3,1.6,4.8v0.1c0.1,2.4-1,4.7-3,6.2s-4.8,2.2-8.5,2.2h-15.7v-30.4L196.9,266.7z M210.4,278.8c1,0.1,2.1-0.2,3-0.7
	c0.7-0.4,1.1-1.2,1-2V276c0-0.8-0.3-1.5-1-1.9c-0.9-0.5-1.9-0.7-2.9-0.7H205v5.3L210.4,278.8L210.4,278.8z M211.6,290.3
	c1,0.1,2.1-0.2,3-0.7c0.7-0.5,1-1.3,1-2.1v-0.1c0-0.8-0.4-1.5-1-2c-0.9-0.6-2-0.8-3.1-0.7h-6.4v5.6L211.6,290.3L211.6,290.3z
	 M245.3,266.7h8.5v30.4h-8.5V266.7z M276.5,266.7h8.4v23h14.7v7.4h-23.2v-30.4H276.5z M320.6,266.7h8.4v30.4h-8.5L320.6,266.7z
	 M351.8,266.7h24.4v7.2h-16.1v4.6h14.6v6.6h-14.6v4.8h16.3v7.2h-24.6L351.8,266.7L351.8,266.7z M356.2,259.1l7.7-2.5l4.5,8h-5.8
	L356.2,259.1L356.2,259.1z M397.9,266.7h14.4c2-0.1,4.1,0.2,6,0.9c1.5,0.5,2.8,1.3,4,2.4c1.9,1.9,2.8,4.4,2.7,7.1v0.1
	c0.1,2.1-0.5,4.1-1.7,5.8c-1.2,1.6-2.7,2.8-4.6,3.5l7.2,10.6h-9.7l-6.2-9.2h-3.7v9.2h-8.4L397.9,266.7L397.9,266.7z M411.9,281.3
	c1.2,0.1,2.4-0.3,3.3-1c0.8-0.6,1.2-1.6,1.2-2.6v-0.1c0.1-1.1-0.4-2.1-1.2-2.7c-1-0.6-2.2-1-3.3-0.9h-5.5v7.3L411.9,281.3
	L411.9,281.3z M446.3,266.7h24.4v7.2h-16.1v4.6h14.6v6.6h-14.6v4.8h16.3v7.2h-24.6L446.3,266.7L446.3,266.7z"/>
<path class="st1" d="M0,154.9v-139h32.3v130.4c-0.1,3.5,0.9,7,3,9.8c1.9,2.6,5,4,8.2,3.9c2.3,0,4.5-0.4,6.6-1.1
	c1.7-0.5,3.3-1.4,4.5-2.7l7,24.7c-5.9,5.3-14.9,8-27,8c-11.3,0-19.9-2.9-25.8-8.6S0,166,0,154.9z M69.2,156.3
	c-5.1-10-7.8-21-7.6-32.2c-0.1-11.2,2.5-22.2,7.6-32.1c5.2-9.8,13-17.9,22.6-23.4c9.9-5.9,21.5-8.9,34.5-8.9s24.6,3,34.7,8.9
	c9.6,5.5,17.4,13.6,22.6,23.4c5.1,9.9,7.8,21,7.6,32.1c0.1,11.2-2.5,22.3-7.6,32.3c-5.2,9.8-13,18-22.6,23.5c-10,6-21.6,9-34.7,9
	s-24.6-3-34.5-9C82.2,174.3,74.4,166.1,69.2,156.3z M94.9,124.1c0,10.1,2.8,18.6,8.4,25.5s13.3,10.4,23,10.4
	c9.8,0,17.5-3.4,23.2-10.3s8.5-15.4,8.5-25.6c0-10-2.8-18.4-8.5-25.3c-5.6-6.9-13.4-10.3-23.2-10.3c-9.7,0-17.4,3.4-23,10.3
	C97.8,105.6,94.9,114.1,94.9,124.1z M201.6,122.3c0-19.6,5-35,15.1-46c10.1-11.1,23.1-16.6,39.1-16.6c15.6,0,28.3,6.3,38.2,18.9
	V62.8h32.3v114.7c0.2,8.1-1.2,16.2-4,23.9c-2.3,6.3-5.9,12-10.5,16.8c-4.5,4.3-9.7,7.9-15.4,10.4c-5.7,2.6-11.7,4.5-17.8,5.5
	c-6.2,1-12.4,1.5-18.6,1.5c-9.8,0.2-19.6-1.3-29-4.2c-8.8-3-17-7.8-24-14l14.4-23.1c9.3,9.9,22.2,14.9,38.6,14.9c4,0,8-0.5,11.9-1.5
	c3.8-1,7.5-2.7,10.8-4.8c3.6-2.4,6.5-5.8,8.3-9.8c2.1-4.9,3.2-10.1,3-15.4v-11.9c-10.2,12.8-22.9,19.1-38.2,19.1
	c-15.9,0-28.9-5.4-39-16.3C206.7,157.5,201.6,142.1,201.6,122.3L201.6,122.3z M243.5,97.6c-5.7,6-8.6,14.2-8.6,24.6
	s2.9,18.6,8.6,24.6c5.7,6,13.3,9,22.8,9c5.4-0.1,10.8-1.5,15.6-4c4.8-2.3,9-5.7,12.1-9.9v-39.8c-3.2-4.2-7.3-7.5-12.1-9.7
	c-4.8-2.5-10.2-3.8-15.7-3.9C256.7,88.5,249.1,91.5,243.5,97.6L243.5,97.6z M344.1,124.1c-0.1-11.3,2.7-22.5,8.1-32.4
	c5.3-9.7,13.2-17.8,22.7-23.3c10-5.8,21.3-8.8,32.8-8.6c18.4,0,33.3,6.2,44.6,18.7c11.3,12.5,17,28.7,17,48.8v7.6h-91.4
	c1.1,7.7,5,14.8,11.1,19.8c6.2,5.2,14.3,7.8,24.4,7.8c6-0.1,12-1.2,17.6-3.3c5.6-1.8,10.7-4.8,15-8.8l14.4,21.4
	c-6.5,5.8-14.1,10.1-22.4,12.7c-9.1,3-18.6,4.5-28.2,4.5c-19,0-34.7-5.9-47-17.8C350.3,159.1,344.1,143.5,344.1,124.1z M377.7,112.4
	h60.5c-0.2-3.1-1-6.2-2.2-9.1c-1.3-3-3.1-5.8-5.3-8.3c-2.6-2.9-5.8-5.1-9.4-6.4c-4.3-1.7-8.9-2.5-13.5-2.4
	c-4.4-0.1-8.8,0.7-12.9,2.4c-3.5,1.4-6.6,3.5-9.2,6.3c-2.2,2.5-4.1,5.3-5.5,8.3C378.8,106.1,378,109.2,377.7,112.4z M387.6,44.2
	l34.1-36.7h29.8l-41.3,36.7H387.6z"/>
<linearGradient id="SVGID_1_" gradientUnits="userSpaceOnUse" x1="483.7" y1="912.8873" x2="704.0474" y2="912.8873" gradientTransform="matrix(1 0 0 1 0 -745.84)">
	<stop  offset="0" style="stop-color:#69B75C"/>
	<stop  offset="1" style="stop-color:#96CC8D"/>
</linearGradient>
<path class="st2" d="M594.9,0c-61-0.6-111.2,49.2-111.2,110.1c0,20.6,5.8,40.8,16.7,58.3c4.2,6.8,8.3,13.6,12.2,20.6l81.3,145.1
	L675.1,189c4.1-7.3,8.4-14.4,12.8-21.5c31.7-51.9,15.3-119.7-36.7-151.4C634.2,5.8,614.8,0.2,594.9,0z M650.9,185.7h-32.3v-15.8
	c-10,12.6-22.6,18.9-37.9,18.9c-15.9,0-29-5.8-39.2-17.3s-15.3-27.3-15.3-47.5c0-19.6,5.1-35.3,15.2-46.9s23.2-17.5,39.2-17.5
	c15.4,0,28.1,6.3,37.9,18.9V62.8h32.3L650.9,185.7L650.9,185.7z"/>
<linearGradient id="SVGID_2_" gradientUnits="userSpaceOnUse" x1="559.5" y1="870.19" x2="618.5" y2="870.19" gradientTransform="matrix(1 0 0 1 0 -745.84)">
	<stop  offset="0" style="stop-color:#69B75C"/>
	<stop  offset="1" style="stop-color:#96CC8D"/>
</linearGradient>
<path class="st3" d="M606.7,92.6c-4.9-2.6-10.4-4-15.9-4c-9.3,0-16.8,3.3-22.6,9.8s-8.7,15.1-8.7,25.7c0,10.7,2.9,19.3,8.7,26
	s13.3,10,22.6,10c5.5-0.1,11-1.4,15.9-4c4.8-2.2,8.8-5.7,11.8-10v-43.4C615.6,98.3,611.5,94.8,606.7,92.6z"/>
</svg>
