<?xml version="1.0" encoding="utf-8"?>
<!-- Generator: Adobe Illustrator 24.1.2, SVG Export Plug-In . SVG Version: 6.00 Build 0)  -->
<svg version="1.1" id="Capa_1" transform="rotate(90)" xmlns:svgjs="http://svgjs.com/svgjs"
	 xmlns="http://www.w3.org/2000/svg" xmlns:xlink="http://www.w3.org/1999/xlink" x="0px" y="0px" viewBox="0 0 1024 551.5"
	 style="enable-background:new 0 0 1024 551.5;" xml:space="preserve">
<style type="text/css">
	.st0{fill:#0C3279;}
	.st1{fill:#FFFFFF;}
	.st2{fill:none;stroke:#DA1A31;stroke-width:3;}
	.st3{fill:#DA1A31;}
	.st4{fill:none;stroke:#DA1A31;stroke-width:5;}
	.st5{fill:none;stroke:#DA1A31;stroke-width:6;}
	.st6{fill:none;stroke:#0C3279;stroke-width:0.5044;}
	.st7{fill:none;stroke:#0C3279;stroke-width:0.4909;}
	.st8{fill:none;stroke:#DA1A31;stroke-width:0.5419;stroke-miterlimit:10;}
	.st9{fill:none;stroke:#DA1A31;}
	.st10{fill:none;stroke:#DA1A31;stroke-width:0.7671;stroke-miterlimit:10;}
	.st11{fill:none;stroke:#DA1A31;stroke-width:0.3145;}
	.st12{fill:none;stroke:#DA1A31;stroke-width:0.629;}
	.st13{fill:none;stroke:#DA1A31;stroke-width:1;}
	.st14{font-family:'ArialMT';}
	.st15{font-size:12px;}
	.st16{font-size:13px;}
	.st17{font-family:'Arial-Black';}
	.st18{font-size:28px;}
</style>
<g>
	<path class="st0" d="M650.4,55.7l-251.2-0.1v7.5h-7.4v-9.4L70.8,53.6l1.5,8.8l-15.2,2.5l-4.4-26.6l941,0.1v0.7l0.1,195H893v-15.3
		h85.3l-0.1-164.3l-320.4,0.1v20.3h-7.5L650.4,55.7 M77.1,185.6l-8.2-49.3l15.1-2.5l8.2,49.3L77.1,185.6 M96.4,302l-7.5-45.1
		l15.2-2.5l7.4,45.1L96.4,302 M496.2,371.9h62.6v22.3h91.8v-66.1h15.3v81.4l-122.5,0.1v-22.3h-39.3v25.7L407,413H114.8l-6.6-39.6
		l15.1-2.5l4.4,26.7h264V358h7.3v37.8l89.8-0.1v-31.5h7.4L496.2,371.9 M488.8,296.8h-35.3v-8h35.2V164l-89.7-0.1v124.9h5.3v8H399
		v8.3h-7.3V113.5h7.4V156h251.2v-32h7.5v32.6h32.6v7.7h-32.6v53.1h4.6v14h-11.8v-67.5H496.2v151.3h-7.4L488.8,296.8 M751.8,156.5
		v62.2h80.1v15.4L725.3,234v-16.6h19.1v-53.1h-4.8v-7.7L751.8,156.5"/>
	<path class="st1" d="M893,218.8v7.5h-61.1v-7.6h-80.1v-62.2h-12.3v7.7h4.8v53.1h-19.1v7.6h-62.8v-7.6h-4.6v-53.1h32.6v-7.7h-32.6
		V124h-7.5v32H399.1v-42.5h-7.4v191.6h7.3v-8.3h5.4v-8h-5.3V163.9l89.7,0.1v124.9h-35.2v8h35.3v18.3h7.4V163.9h154.4v67.5h7.7v96.8
		h-7.7v66.1h-91.8v-22.3h-62.6v-7.7h-7.4v31.5l-89.8,0.1V358h-7.3v39.6h-264l-4.4-26.8l-7.5,1.3l-11.8-71.4l7.5-1.2l-7.4-45.1
		l-7.5,1.2l-11.8-71.3l7.5-1.3L84,133.8l-7.5,1.3L64.6,63.6l7.6-1.2l-1.5-8.8l320.9,0.1v9.4h7.4v-7.5l251.2,0.1v19.2h7.5V54.6
		l320.4-0.1l0.1,164.3H893"/>
	<path class="st1" d="M171.4,84.4h-59.3c-0.3,0-0.6-0.3-0.6-0.7V54.6c0-0.4,0.3-0.7,0.6-0.7h59.3c0.3,0,0.6,0.3,0.6,0.7v29.1
		C172,84.1,171.7,84.4,171.4,84.4z"/>
	<path class="st2" d="M171.4,84.4h-59.3c-0.3,0-0.6-0.3-0.6-0.7V54.6c0-0.4,0.3-0.7,0.6-0.7h59.3c0.3,0,0.6,0.3,0.6,0.7v29.1
		C172,84.1,171.7,84.4,171.4,84.4L171.4,84.4L171.4,84.4z"/>
	<path class="st1" d="M169.2,55h-54.8c-1,0-1.9,1-1.9,2.3v23.8c0,1.2,0.8,2.3,1.9,2.3h54.8c1,0,1.9-1,1.9-2.3V57.2
		C171,56,170.2,55,169.2,55z"/>
	<path class="st2" d="M169.2,55h-54.8c-1,0-1.9,1-1.9,2.3v23.8c0,1.2,0.8,2.3,1.9,2.3h54.8c1,0,1.9-1,1.9-2.3V57.2
		C171,56,170.2,55,169.2,55L169.2,55L169.2,55z"/>
	<path class="st1" d="M169.2,63c-0.8-2.7-2.5-4.1-7.1-4.6c-4.6-0.5-11.4-0.5-15.3-0.1c-5.1,0.4-8.3,2.5-8.7,5.1
		c-0.4,2.6-1,11.2-0.1,13.7c0.9,2.5,4.2,4.8,8,4.9c3.8,0.2,12.5,0.2,15.3,0.1c2.9-0.1,7.2-1.7,7.9-4.6
		C170.1,73.6,170.1,66.1,169.2,63L169.2,63z"/>
	<path class="st2" d="M169.2,63c-0.8-2.7-2.5-4.1-7.1-4.6c-4.6-0.5-11.4-0.5-15.3-0.1c-5.1,0.4-8.3,2.5-8.7,5.1
		c-0.4,2.6-1,11.2-0.1,13.7c0.9,2.5,4.2,4.8,8,4.9c3.8,0.2,12.5,0.2,15.3,0.1c2.9-0.1,7.2-1.7,7.9-4.6
		C170.1,73.6,170.1,66.1,169.2,63L169.2,63C169.2,63,169.2,63,169.2,63z"/>
	<path class="st3" d="M153.7,72.2c1.2,0,2.2-1,2.2-2.2c0-1.2-1-2.2-2.2-2.2c-1.2,0-2.2,1-2.2,2.2C151.6,71.2,152.5,72.2,153.7,72.2
		L153.7,72.2z"/>
	<path class="st2" d="M153.7,72.2c1.2,0,2.2-1,2.2-2.2c0-1.2-1-2.2-2.2-2.2c-1.2,0-2.2,1-2.2,2.2C151.6,71.2,152.5,72.2,153.7,72.2
		L153.7,72.2z"/>
	<path class="st1" d="M114.9,61.6c0.5-2.9,1.6-4.4,4.7-5c3-0.6,7.5-0.5,10-0.2c3.4,0.4,5.4,2.7,5.7,5.4s0.6,12,0.1,14.7
		c-0.6,2.7-2.7,5.1-5.2,5.3c-2.5,0.2-8.2,0.2-10.1,0.1c-1.9-0.1-4.7-1.8-5.2-5C114.3,72.9,114.3,64.9,114.9,61.6L114.9,61.6z"/>
	<path class="st2" d="M114.9,61.6c0.5-2.9,1.6-4.4,4.7-5c3-0.6,7.5-0.5,10-0.2c3.4,0.4,5.4,2.7,5.7,5.4c0.2,2.7,0.6,12,0.1,14.7
		c-0.6,2.7-2.7,5.1-5.2,5.3c-2.5,0.2-8.2,0.2-10.1,0.1c-1.9-0.1-4.7-1.8-5.2-5C114.3,72.9,114.3,64.9,114.9,61.6L114.9,61.6
		C114.9,61.6,114.9,61.6,114.9,61.6z"/>
	<path class="st1" d="M133.4,60.2h-16.7c-0.3,0-0.6,0.3-0.6,0.6c0,0.3,0.3,0.6,0.6,0.6h16.7c0.3,0,0.6-0.3,0.6-0.6
		C134,60.5,133.8,60.2,133.4,60.2z"/>
	<path class="st2" d="M133.4,60.2h-16.7c-0.3,0-0.6,0.3-0.6,0.6l0,0c0,0.3,0.3,0.6,0.6,0.6h16.7c0.3,0,0.6-0.3,0.6-0.6l0,0
		C134,60.5,133.8,60.2,133.4,60.2L133.4,60.2C133.4,60.2,133.4,60.2,133.4,60.2z"/>
	<path class="st1" d="M134.1,63H116c-0.3,0-0.5,0.3-0.5,0.6c0,0.3,0.2,0.6,0.5,0.6h18.1c0.3,0,0.5-0.3,0.5-0.6
		C134.6,63.2,134.4,63,134.1,63z"/>
	<path class="st2" d="M134.1,63H116c-0.3,0-0.5,0.3-0.5,0.6l0,0c0,0.3,0.2,0.6,0.5,0.6h18.1c0.3,0,0.5-0.3,0.5-0.6l0,0
		C134.6,63.2,134.4,63,134.1,63L134.1,63L134.1,63z"/>
	<path class="st1" d="M134.1,65.7H116c-0.3,0-0.5,0.3-0.5,0.6c0,0.3,0.2,0.6,0.5,0.6h18.1c0.3,0,0.5-0.3,0.5-0.6
		C134.6,66,134.4,65.7,134.1,65.7z"/>
	<path class="st2" d="M134.1,65.7H116c-0.3,0-0.5,0.3-0.5,0.6l0,0c0,0.3,0.2,0.6,0.5,0.6h18.1c0.3,0,0.5-0.3,0.5-0.6l0,0
		C134.6,66,134.4,65.7,134.1,65.7L134.1,65.7L134.1,65.7z"/>
	<path class="st1" d="M134.1,68.6H116c-0.3,0-0.5,0.3-0.5,0.6s0.2,0.6,0.5,0.6h18.1c0.3,0,0.5-0.3,0.5-0.6S134.4,68.6,134.1,68.6z"
		/>
	<path class="st2" d="M134.1,68.6H116c-0.3,0-0.5,0.3-0.5,0.6l0,0c0,0.3,0.2,0.6,0.5,0.6h18.1c0.3,0,0.5-0.3,0.5-0.6l0,0
		C134.6,68.8,134.4,68.6,134.1,68.6L134.1,68.6L134.1,68.6z"/>
	<path class="st1" d="M134.1,71.4H116c-0.3,0-0.5,0.3-0.5,0.6c0,0.3,0.2,0.6,0.5,0.6h18.1c0.3,0,0.5-0.3,0.5-0.6
		C134.6,71.6,134.4,71.4,134.1,71.4z"/>
	<path class="st2" d="M134.1,71.4H116c-0.3,0-0.5,0.3-0.5,0.6l0,0c0,0.3,0.2,0.6,0.5,0.6h18.1c0.3,0,0.5-0.3,0.5-0.6l0,0
		C134.6,71.6,134.4,71.4,134.1,71.4L134.1,71.4L134.1,71.4z"/>
	<path class="st1" d="M134.1,74.2H116c-0.3,0-0.5,0.3-0.5,0.6c0,0.3,0.2,0.6,0.5,0.6h18.1c0.3,0,0.5-0.3,0.5-0.6
		C134.6,74.5,134.4,74.2,134.1,74.2z"/>
	<path class="st2" d="M134.1,74.2H116c-0.3,0-0.5,0.3-0.5,0.6l0,0c0,0.3,0.2,0.6,0.5,0.6h18.1c0.3,0,0.5-0.3,0.5-0.6l0,0
		C134.6,74.5,134.4,74.2,134.1,74.2L134.1,74.2L134.1,74.2z"/>
	<path class="st1" d="M133.4,77h-16.7c-0.3,0-0.6,0.3-0.6,0.6c0,0.3,0.3,0.6,0.6,0.6h16.7c0.3,0,0.6-0.3,0.6-0.6
		C134,77.3,133.8,77,133.4,77z"/>
	<path class="st2" d="M133.4,77h-16.7c-0.3,0-0.6,0.3-0.6,0.6l0,0c0,0.3,0.3,0.6,0.6,0.6h16.7c0.3,0,0.6-0.3,0.6-0.6l0,0
		C134,77.3,133.8,77,133.4,77L133.4,77C133.4,77,133.4,77,133.4,77z"/>
	<path class="st3" d="M154.3,58c1,0,1.8-0.8,1.8-1.9s-0.8-1.9-1.8-1.9s-1.8,0.8-1.8,1.9S153.3,58,154.3,58z"/>
	<path class="st2" d="M154.3,58c1,0,1.8-0.8,1.8-1.9s-0.8-1.9-1.8-1.9s-1.8,0.8-1.8,1.9S153.3,58,154.3,58L154.3,58L154.3,58z"/>
	<path class="st3" d="M154.7,55.8c-0.7-0.6-1.5,0.5-0.7,1.1c0.8,0.7,3.7,3.2,4.4,3.7c1,0.8,1.7-0.4,0.8-1.2
		C158.2,58.7,155.1,56.2,154.7,55.8L154.7,55.8z"/>
	<path class="st2" d="M154.7,55.8c-0.7-0.6-1.5,0.5-0.7,1.1c0.8,0.7,3.7,3.2,4.4,3.7c1,0.8,1.7-0.4,0.8-1.2
		C158.2,58.7,155.1,56.2,154.7,55.8L154.7,55.8C154.7,55.8,154.7,55.8,154.7,55.8z"/>
	<path class="st1" d="M212.3,53.8h40.8v34.1h-40.8V53.8z"/>
	<path class="st4" d="M212.3,53.8h40.8v34.1h-40.8V53.8L212.3,53.8z"/>
	<path class="st3" d="M229.8,85.7c-0.8,0-1.4-0.6-1.4-1.3s0.6-1.3,1.4-1.3s1.4,0.6,1.4,1.3S230.5,85.7,229.8,85.7z"/>
	<path class="st4" d="M229.8,85.7c-0.8,0-1.4-0.6-1.4-1.3s0.6-1.3,1.4-1.3s1.4,0.6,1.4,1.3S230.5,85.7,229.8,85.7L229.8,85.7
		L229.8,85.7z"/>
	<path class="st3" d="M235.5,85.7c-0.8,0-1.4-0.6-1.4-1.3s0.6-1.3,1.4-1.3c0.8,0,1.4,0.6,1.4,1.3S236.2,85.7,235.5,85.7z"/>
	<path class="st4" d="M235.5,85.7c-0.8,0-1.4-0.6-1.4-1.3s0.6-1.3,1.4-1.3s1.4,0.6,1.4,1.3S236.2,85.7,235.5,85.7L235.5,85.7
		L235.5,85.7z"/>
	<path class="st3" d="M241.1,85.7c-0.8,0-1.4-0.6-1.4-1.3s0.6-1.3,1.4-1.3s1.4,0.6,1.4,1.3S241.8,85.7,241.1,85.7z"/>
	<path class="st4" d="M241.1,85.7c-0.8,0-1.4-0.6-1.4-1.3s0.6-1.3,1.4-1.3s1.4,0.6,1.4,1.3S241.8,85.7,241.1,85.7L241.1,85.7
		L241.1,85.7z"/>
	<path class="st3" d="M246.6,85.7c-0.8,0-1.4-0.6-1.4-1.3s0.6-1.3,1.4-1.3s1.4,0.6,1.4,1.3S247.3,85.7,246.6,85.7z"/>
	<path class="st4" d="M246.6,85.7c-0.8,0-1.4-0.6-1.4-1.3s0.6-1.3,1.4-1.3c0.8,0,1.4,0.6,1.4,1.3S247.3,85.7,246.6,85.7L246.6,85.7
		C246.6,85.7,246.6,85.7,246.6,85.7z"/>
	<path class="st1" d="M229.7,83.3c0,0.4,0,0.8,0,1.2"/>
	<path class="st4" d="M229.7,83.3c0,0.4,0,0.8,0,1.2"/>
	<path class="st1" d="M235.5,83.3c0,0.4,0,0.8,0,1.2"/>
	<path class="st4" d="M235.5,83.3c0,0.4,0,0.8,0,1.2"/>
	<path class="st1" d="M241.1,83.3c0,0.4,0,0.8,0,1.2"/>
	<path class="st4" d="M241.1,83.3c0,0.4,0,0.8,0,1.2"/>
	<path class="st1" d="M246.6,83.3c0,0.4,0,0.8,0,1.2"/>
	<path class="st4" d="M246.6,83.3c0,0.4,0,0.8,0,1.2"/>
	<path class="st1" d="M223.5,67.7c-3.2,0-5.8-2.5-5.8-5.6s2.6-5.6,5.8-5.6s5.8,2.5,5.8,5.6S226.7,67.7,223.5,67.7z"/>
	<path class="st5" d="M223.5,67.7c-3.2,0-5.8-2.5-5.8-5.6s2.6-5.6,5.8-5.6c3.2,0,5.8,2.5,5.8,5.6S226.7,67.7,223.5,67.7L223.5,67.7
		L223.5,67.7z"/>
	<path class="st1" d="M223.5,66.4c-2.5,0-4.5-1.9-4.5-4.3s2-4.3,4.5-4.3s4.5,1.9,4.5,4.3S226,66.4,223.5,66.4z"/>
	<path class="st5" d="M223.5,66.4c-2.5,0-4.5-1.9-4.5-4.3s2-4.3,4.5-4.3c2.5,0,4.5,1.9,4.5,4.3S226,66.4,223.5,66.4L223.5,66.4
		L223.5,66.4z"/>
	<path class="st1" d="M223.5,65.1c-1.7,0-3.1-1.3-3.1-3s1.4-3,3.1-3s3.1,1.3,3.1,3S225.2,65.1,223.5,65.1z"/>
	<path class="st5" d="M223.5,65.1c-1.7,0-3.1-1.3-3.1-3s1.4-3,3.1-3c1.7,0,3.1,1.3,3.1,3C226.6,63.8,225.2,65.1,223.5,65.1
		L223.5,65.1L223.5,65.1z"/>
	<path d="M223.4,63.4c-0.7,0-1.3-0.6-1.3-1.3s0.6-1.3,1.3-1.3s1.3,0.6,1.3,1.3S224.2,63.4,223.4,63.4z"/>
	<path class="st1" d="M242.5,79.9c-3.2,0-5.8-2.5-5.8-5.6s2.6-5.6,5.8-5.6s5.8,2.5,5.8,5.6S245.8,79.9,242.5,79.9z"/>
	<path class="st5" d="M242.5,79.9c-3.2,0-5.8-2.5-5.8-5.6s2.6-5.6,5.8-5.6c3.2,0,5.8,2.5,5.8,5.6S245.8,79.9,242.5,79.9L242.5,79.9
		L242.5,79.9z"/>
	<path class="st1" d="M242.5,78.5c-2.5,0-4.5-1.9-4.5-4.3s2-4.3,4.5-4.3s4.5,1.9,4.5,4.3C247,76.6,245,78.5,242.5,78.5z"/>
	<path class="st5" d="M242.5,78.5c-2.5,0-4.5-1.9-4.5-4.3s2-4.3,4.5-4.3c2.5,0,4.5,1.9,4.5,4.3S245,78.5,242.5,78.5L242.5,78.5
		L242.5,78.5z"/>
	<path class="st1" d="M242.5,77.2c-1.7,0-3.1-1.3-3.1-3s1.4-3,3.1-3s3.1,1.3,3.1,3S244.2,77.2,242.5,77.2z"/>
	<path class="st5" d="M242.5,77.2c-1.7,0-3.1-1.3-3.1-3s1.4-3,3.1-3c1.7,0,3.1,1.3,3.1,3S244.2,77.2,242.5,77.2L242.5,77.2
		L242.5,77.2z"/>
	<path d="M242.5,75.5c-0.7,0-1.3-0.6-1.3-1.3s0.6-1.3,1.3-1.3s1.3,0.6,1.3,1.3S243.2,75.5,242.5,75.5z"/>
	<path class="st1" d="M243.1,67.7c-3.2,0-5.8-2.5-5.8-5.6s2.6-5.6,5.8-5.6s5.8,2.5,5.8,5.6S246.3,67.7,243.1,67.7z"/>
	<path class="st5" d="M243.1,67.7c-3.2,0-5.8-2.5-5.8-5.6s2.6-5.6,5.8-5.6s5.8,2.5,5.8,5.6S246.3,67.7,243.1,67.7L243.1,67.7
		L243.1,67.7z"/>
	<path class="st1" d="M243.1,66.4c-2.5,0-4.5-1.9-4.5-4.3s2-4.3,4.5-4.3s4.5,1.9,4.5,4.3S245.5,66.4,243.1,66.4z"/>
	<path class="st5" d="M243.1,66.4c-2.5,0-4.5-1.9-4.5-4.3s2-4.3,4.5-4.3s4.5,1.9,4.5,4.3S245.5,66.4,243.1,66.4L243.1,66.4
		L243.1,66.4z"/>
	<path class="st1" d="M243.1,65.1c-1.7,0-3.1-1.3-3.1-3s1.4-3,3.1-3s3.1,1.3,3.1,3S244.8,65.1,243.1,65.1z"/>
	<path class="st5" d="M243.1,65.1c-1.7,0-3.1-1.3-3.1-3s1.4-3,3.1-3s3.1,1.3,3.1,3C246.1,63.8,244.8,65.1,243.1,65.1L243.1,65.1
		L243.1,65.1z"/>
	<path class="st1" d="M223,79.9c-3.2,0-5.8-2.5-5.8-5.6s2.6-5.6,5.8-5.6s5.8,2.5,5.8,5.6S226.2,79.9,223,79.9z"/>
	<path class="st5" d="M223,79.9c-3.2,0-5.8-2.5-5.8-5.6s2.6-5.6,5.8-5.6s5.8,2.5,5.8,5.6S226.2,79.9,223,79.9L223,79.9L223,79.9z"/>
	<path class="st1" d="M223,78.5c-2.5,0-4.5-1.9-4.5-4.3s2-4.3,4.5-4.3s4.5,1.9,4.5,4.3C227.4,76.6,225.5,78.5,223,78.5z"/>
	<path class="st5" d="M223,78.5c-2.5,0-4.5-1.9-4.5-4.3s2-4.3,4.5-4.3s4.5,1.9,4.5,4.3S225.5,78.5,223,78.5L223,78.5L223,78.5z"/>
	<path class="st1" d="M223,77.2c-1.7,0-3.1-1.3-3.1-3s1.4-3,3.1-3s3.1,1.3,3.1,3S224.7,77.2,223,77.2z"/>
	<path class="st5" d="M223,77.2c-1.7,0-3.1-1.3-3.1-3s1.4-3,3.1-3s3.1,1.3,3.1,3S224.7,77.2,223,77.2L223,77.2L223,77.2z"/>
	<path d="M222.9,75.5c-0.7,0-1.3-0.6-1.3-1.3s0.6-1.3,1.3-1.3s1.3,0.6,1.3,1.3S223.6,75.5,222.9,75.5z M243,63.4
		c-0.7,0-1.3-0.6-1.3-1.3s0.6-1.3,1.3-1.3s1.3,0.6,1.3,1.3S243.7,63.4,243,63.4z"/>
	<path class="st6" d="M345.2,63.3c0,27.6,22.6,49.9,50.4,49.9"/>
	<path class="st0" d="M395.4,63H345v5h50.4V63z"/>
	<path class="st1" d="M83.6,133.3L71.8,62.6l-6.8,1.1l11.7,70.7L83.6,133.3z"/>
	<path class="st2" d="M83.6,133.3L71.8,62.6l-6.8,1.1l11.7,70.7L83.6,133.3L83.6,133.3z"/>
	<path class="st5" d="M79.7,131.4l-5-30.2"/>
	<path class="st2" d="M82.1,133.5l-0.4-2.1l-3.9,0.6l0.4,2.1L82.1,133.5L82.1,133.5z M70.7,65l-0.4-2.1l-3.9,0.6l0.4,2.1L70.7,65
		L70.7,65z"/>
	<path class="st5" d="M73.9,96c-1.7-10.1-3.3-20.2-5-30.2"/>
	<path class="st2" d="M76.5,100.3l-0.4-2.1l-3.9,0.6l0.4,2.1L76.5,100.3L76.5,100.3z M76.2,98.2l-0.4-2.1L72,96.7l0.4,2.1L76.2,98.2
		L76.2,98.2z"/>
	<path class="st1" d="M122.8,370.5l-11.7-70.7l-6.8,1.1l11.7,70.7L122.8,370.5z"/>
	<path class="st2" d="M122.8,370.5l-11.7-70.7l-6.8,1.1l11.7,70.7L122.8,370.5L122.8,370.5z"/>
	<path class="st5" d="M119,368.5l-5-30.2"/>
	<path class="st2" d="M121.4,370.7l-0.4-2.1l-3.9,0.6l0.4,2.1L121.4,370.7L121.4,370.7z M110,302.2l-0.4-2.1l-3.9,0.6l0.4,2.1
		L110,302.2L110,302.2z"/>
	<path class="st5" d="M113.1,333.2c-1.7-10.1-3.3-20.2-5-30.2"/>
	<path class="st2" d="M115.8,337.5l-0.4-2.1l-3.9,0.6l0.4,2.1L115.8,337.5L115.8,337.5z M115.5,335.4l-0.4-2.1l-3.9,0.6l0.4,2.1
		L115.5,335.4L115.5,335.4z"/>
	<path class="st1" d="M103.5,253.9l-11.7-70.7l-6.8,1.1l11.7,70.7L103.5,253.9z"/>
	<path class="st2" d="M103.5,253.9l-11.7-70.7l-6.8,1.1l11.7,70.7L103.5,253.9L103.5,253.9z"/>
	<path class="st5" d="M99.7,252l-5-30.2"/>
	<path class="st2" d="M102.1,254.2l-0.4-2.1l-3.9,0.6l0.4,2.1L102.1,254.2L102.1,254.2z M90.7,185.7l-0.4-2.1l-3.9,0.6l0.4,2.1
		L90.7,185.7L90.7,185.7z"/>
	<path class="st5" d="M93.8,216.7c-1.7-10.1-3.3-20.2-5-30.2"/>
	<path class="st2" d="M96.5,221l-0.4-2.1l-3.9,0.6l0.4,2.1L96.5,221L96.5,221z M96.2,218.9l-0.4-2.1l-3.9,0.6l0.4,2.1L96.2,218.9
		L96.2,218.9z"/>
	<path class="st7" d="M404.7,244.3c26.8,0,48.6,22,48.6,49.1"/>
	<path class="st0" d="M404.4,293.2v-49.1h4.9v49.1H404.4z"/>
	<path class="st1" d="M408.2,164h23c4.1,0,5.7,25.9,0.7,34.3c-5.2,8.5-9,8.5-12.5,8.5c-2.4,0-6.5,0-11.3-7.4
		C403.6,192.3,404.3,164,408.2,164L408.2,164z"/>
	<path class="st4" d="M408.2,164h23c4.1,0,5.7,25.9,0.7,34.3c-5.2,8.5-9,8.5-12.5,8.5c-2.4,0-6.5,0-11.3-7.4
		C403.6,192.3,404.3,164,408.2,164L408.2,164L408.2,164z"/>
	<path class="st4" d="M415.4,174.8c-0.6,0-1.1-1.2-1.1-2.6c0-1.4,0.5-2.6,1.1-2.6s1.1,1.2,1.1,2.6
		C416.4,173.7,416,174.8,415.4,174.8L415.4,174.8L415.4,174.8z M424.6,174.8c-0.6,0-1.1-1.2-1.1-2.6c0-1.4,0.5-2.6,1.1-2.6
		s1.1,1.2,1.1,2.6C425.7,173.7,425.2,174.8,424.6,174.8L424.6,174.8L424.6,174.8z"/>
	<path class="st1" d="M408.4,172.4c3.6,0,20.3,0,23.7,0c3.3,0,2.7,15.9,0.1,23c-1.5,4.1-6,10-12.8,10c-6.1,0-8.8-3.9-11.4-9
		C405.1,190.6,404.9,172.4,408.4,172.4L408.4,172.4z"/>
	<path class="st4" d="M408.4,172.4c3.6,0,20.3,0,23.7,0c3.3,0,2.7,15.9,0.1,23c-1.5,4.1-6,10-12.8,10c-6.1,0-8.8-3.9-11.4-9
		C405.1,190.6,404.9,172.4,408.4,172.4L408.4,172.4C408.4,172.4,408.4,172.4,408.4,172.4z"/>
	<path class="st1" d="M488.6,275.8v-39.6h-30.3v39.6H488.6z"/>
	<path class="st8" d="M488.6,275.8v-39.6h-30.3v39.6H488.6L488.6,275.8z"/>
	<path class="st1" d="M480.5,269.1v-26.5h-17.1v26.5H480.5z"/>
	<path class="st8" d="M480.5,269.1v-26.5h-17.1v26.5H480.5L480.5,269.1z"/>
	<path class="st3" d="M486.5,257.9v-3.7h-3.9v3.7H486.5z"/>
	<path class="st8" d="M486.5,257.9v-3.7h-3.9v3.7H486.5L486.5,257.9z"/>
	<path class="st3" d="M487.3,257.4v-2.6h-10.6v2.6H487.3z"/>
	<path class="st8" d="M487.3,257.4v-2.6h-10.6v2.6H487.3L487.3,257.4z"/>
	<path class="st3" d="M470.4,256.1c0,0.8,0.7,1.4,1.6,1.4s1.6-0.6,1.6-1.4c0-0.8-0.7-1.4-1.6-1.4S470.4,255.3,470.4,256.1z"/>
	<path class="st8" d="M470.4,256.1c0,0.8,0.7,1.4,1.6,1.4s1.6-0.6,1.6-1.4c0-0.8-0.7-1.4-1.6-1.4S470.4,255.3,470.4,256.1
		L470.4,256.1C470.4,256.1,470.4,256.1,470.4,256.1z"/>
	<path class="st1" d="M488.6,164v54h-49.1v-54H488.6z"/>
	<path class="st4" d="M488.6,164v54h-49.1v-54H488.6L488.6,164z"/>
	<path class="st4" d="M484.4,170.3v41.5c0,1.5-1.4,2.8-3.2,2.8h-34.3c-1.8,0-3.2-1.2-3.2-2.8v-41.5c0-1.5,1.4-2.8,3.2-2.8h34.3
		C483,167.5,484.4,168.8,484.4,170.3L484.4,170.3L484.4,170.3z"/>
	<path class="st3" d="M475.8,173c0-1.3,1.3-2.4,2.8-2.4c1.6,0,2.8,1.1,2.8,2.4c0,1.3-1.3,2.4-2.8,2.4
		C477.1,175.4,475.8,174.3,475.8,173z"/>
	<path class="st4" d="M475.8,173c0-1.3,1.3-2.4,2.8-2.4c1.6,0,2.8,1.1,2.8,2.4c0,1.3-1.3,2.4-2.8,2.4
		C477.1,175.4,475.8,174.3,475.8,173L475.8,173L475.8,173z"/>
	<path class="st7" d="M541.4,364c0-26.8-22-48.6-49.1-48.6"/>
	<path class="st0" d="M492.5,364.3h49.1v-4.9h-49.1L492.5,364.3L492.5,364.3z"/>
	<path class="st1" d="M651,232.2V328h6.9v-95.8H651z"/>
	<path class="st2" d="M651,232.2V328h6.9v-95.8H651L651,232.2z"/>
	<path class="st5" d="M654.5,235.6l0,41"/>
	<path class="st2" d="M652.4,232.2v2.9h3.9v-2.9H652.4L652.4,232.2z M652.4,325.1v2.9h3.9v-2.9H652.4L652.4,325.1z"/>
	<path class="st5" d="M654.4,283.4c0,13.7,0,27.3,0,41"/>
	<path class="st2" d="M652.5,277.2v2.9h3.9v-2.9H652.5L652.5,277.2z M652.5,280.1v2.9h3.9v-2.9H652.5L652.5,280.1z"/>
	<path class="st1" d="M452.1,114h15.7v41.5h-15.7V114z"/>
	<path class="st2" d="M452.1,114h15.7v41.5h-15.7V114L452.1,114z"/>
	<path class="st1" d="M467.9,114h15.7v41.5h-15.7V114z"/>
	<path class="st2" d="M467.9,114h15.7v41.5h-15.7V114L467.9,114z"/>
	<path class="st1" d="M483.7,114h15.7v41.5h-15.7V114z"/>
	<path class="st2" d="M483.7,114h15.7v41.5h-15.7V114L483.7,114z"/>
	<path class="st1" d="M499.5,114h15.7v41.5h-15.7V114z"/>
	<path class="st2" d="M499.5,114h15.7v41.5h-15.7V114L499.5,114z"/>
	<path class="st1" d="M515.3,114H531v41.5h-15.7V114z"/>
	<path class="st2" d="M515.3,114H531v41.5h-15.7V114L515.3,114z"/>
	<path class="st1" d="M531.1,114h15.7v41.5h-15.7V114z"/>
	<path class="st2" d="M531.1,114h15.7v41.5h-15.7V114L531.1,114z"/>
	<path class="st1" d="M546.9,114h15.7v41.5h-15.7V114z"/>
	<path class="st2" d="M546.9,114h15.7v41.5h-15.7V114L546.9,114z"/>
	<path class="st1" d="M562.7,114h15.7v41.5h-15.7V114z"/>
	<path class="st2" d="M562.7,114h15.7v41.5h-15.7V114L562.7,114z"/>
	<path class="st1" d="M578.5,114h15.7v41.5h-15.7V114z"/>
	<path class="st2" d="M578.5,114h15.7v41.5h-15.7V114L578.5,114z"/>
	<path class="st3" d="M560.5,134.7c5.6-3.1,11.2-6.1,16.8-9.2c-0.4,1.7-0.7,3.4-1.1,5c2.9,0,5.9,0,8.8,0v8.6h-8.6
		c0.3,1.6,0.6,3.2,0.8,4.8C571.7,140.9,566.1,137.8,560.5,134.7L560.5,134.7z"/>
	<path class="st9" d="M560.5,134.7c5.6-3.1,11.2-6.1,16.8-9.2c-0.4,1.7-0.7,3.4-1.1,5c2.9,0,5.9,0,8.8,0v8.6h-8.6
		c0.3,1.6,0.6,3.2,0.8,4.8C571.7,140.9,566.1,137.8,560.5,134.7L560.5,134.7L560.5,134.7z"/>
	<path class="st1" d="M594.6,97.5H579V56h15.7V97.5z"/>
	<path class="st2" d="M594.6,97.5H579V56h15.7V97.5L594.6,97.5z"/>
	<path class="st1" d="M578.8,97.5h-15.7V56h15.7V97.5z"/>
	<path class="st2" d="M578.8,97.5h-15.7V56h15.7V97.5L578.8,97.5z"/>
	<path class="st1" d="M563,97.5h-15.7V56H563V97.5z"/>
	<path class="st2" d="M563,97.5h-15.7V56H563V97.5L563,97.5z"/>
	<path class="st1" d="M547.2,97.5h-15.7V56h15.7V97.5z"/>
	<path class="st2" d="M547.2,97.5h-15.7V56h15.7V97.5L547.2,97.5z"/>
	<path class="st1" d="M531.4,97.5h-15.7V56h15.7V97.5z"/>
	<path class="st2" d="M531.4,97.5h-15.7V56h15.7V97.5L531.4,97.5z"/>
	<path class="st1" d="M515.6,97.5h-15.7V56h15.7V97.5L515.6,97.5z"/>
	<path class="st2" d="M515.6,97.5h-15.7V56h15.7V97.5L515.6,97.5z"/>
	<path class="st1" d="M499.8,97.5h-15.7V56h15.7V97.5z"/>
	<path class="st2" d="M499.8,97.5h-15.7V56h15.7V97.5L499.8,97.5z"/>
	<path class="st1" d="M484,97.5h-15.7V56H484V97.5z"/>
	<path class="st2" d="M484,97.5h-15.7V56H484V97.5L484,97.5z"/>
	<path class="st1" d="M468.2,97.5h-15.7V56h15.7V97.5z"/>
	<path class="st2" d="M468.2,97.5h-15.7V56h15.7V97.5L468.2,97.5z"/>
	<path class="st3" d="M486.2,76.7c-5.6,3.1-11.2,6.1-16.8,9.2c0.4-1.7,0.7-3.4,1.1-5c-2.9,0-5.9,0-8.8,0v-8.6h8.6
		c-0.3-1.6-0.6-3.2-0.8-4.8C475,70.6,480.6,73.6,486.2,76.7L486.2,76.7z"/>
	<path class="st9" d="M486.2,76.7c-5.6,3.1-11.2,6.1-16.8,9.2c0.4-1.7,0.7-3.4,1.1-5c-2.9,0-5.9,0-8.8,0v-8.6h8.6
		c-0.3-1.6-0.6-3.2-0.8-4.8C475,70.6,480.6,73.6,486.2,76.7L486.2,76.7L486.2,76.7z"/>
	<path class="st7" d="M703.1,75.1c0,26.8-22,48.6-49.1,48.6"/>
	<path class="st0" d="M654.2,74.8h49.1v4.9h-49.1V74.8z"/>
	<path class="st1" d="M892.6,219.1h-60.5v6.9h60.5V219.1z"/>
	<path class="st2" d="M892.6,219.1h-60.5v6.9h60.5V219.1L892.6,219.1z"/>
	<path d="M890.5,222.6c-18.7,0-37.5,0-56.2-0.1"/>
	<path class="st5" d="M890.5,222.6c-18.7,0-37.5,0-56.2-0.1"/>
	<path d="M892.6,220.5h-1.8v3.9h1.8V220.5z"/>
	<path class="st2" d="M892.6,220.5h-1.8v3.9h1.8V220.5L892.6,220.5z"/>
	<path d="M833.9,220.5h-1.8v3.9h1.8V220.5z"/>
	<path class="st2" d="M834,220.5h-1.8v3.9h1.8V220.5L834,220.5z"/>
	<path class="st1" d="M669.4,181.3v17.4c0,0,11.8,0.8,14.1,2c5.4,2.6,15.6,3.7,20.9,1c10.8-5.5,11.4-16.2,2.2-22.4
		c-4.2-2.8-14.3-4.5-23.6,0C679.8,181,669.4,181.3,669.4,181.3z"/>
	<path class="st10" d="M669.4,181.3v17.4c0,0,11.8,0.8,14.1,2c5.4,2.6,15.6,3.7,20.9,1c10.8-5.5,11.4-16.2,2.2-22.4
		c-4.2-2.8-14.3-4.5-23.6,0C679.8,181,669.4,181.3,669.4,181.3L669.4,181.3L669.4,181.3z"/>
	<path class="st1" d="M658.4,199.8c0,6.2,9.1,7.5,12.9,2.5c3.2-4.1,3.2-17.7-0.1-23.3c-3.5-6-12.9-4.7-12.9,0.9V199.8z"/>
	<path class="st10" d="M658.4,199.8c0,6.2,9.1,7.5,12.9,2.5c3.2-4.1,3.2-17.7-0.1-23.3c-3.5-6-12.9-4.7-12.9,0.9V199.8L658.4,199.8
		C658.4,199.8,658.4,199.8,658.4,199.8z"/>
	<path class="st3" d="M667.6,190.1c0-1.2-0.9-2.1-2.1-2.1s-2.1,0.9-2.1,2.1s0.9,2.1,2.1,2.1S667.6,191.3,667.6,190.1z"/>
	<path class="st10" d="M667.6,190.1c0-1.2-0.9-2.1-2.1-2.1s-2.1,0.9-2.1,2.1s0.9,2.1,2.1,2.1S667.6,191.3,667.6,190.1L667.6,190.1
		L667.6,190.1z M677,182.5c0,5.1-0.1,10.3-0.1,15.4c0,0,5.7,0.9,8.3,2c3.5,1.5,5.8,2.2,10.7,2.2c5.8,0,15.5-5.1,15.5-11.8
		c0.1-8.6-10.6-12.5-15.5-12.5c-5.5-0.1-7.3,0.9-10.1,2.3C683.5,181.3,677,182.5,677,182.5L677,182.5C677,182.5,677,182.5,677,182.5
		z"/>
	<path class="st7" d="M739.3,111.7c-26.8,0-48.6,22-48.6,49.1"/>
	<path class="st0" d="M739.6,160.5v-49.1h-4.9v49.1H739.6z"/>
	<path class="st1" d="M724.8,217.8h-62.2v6.9h62.2V217.8z"/>
	<path class="st2" d="M724.8,217.8h-62.2v6.9h62.2V217.8L724.8,217.8z"/>
	<path d="M722.6,221.3c-19.3,0-38.5,0-57.8-0.1"/>
	<path class="st5" d="M722.6,221.3c-19.3,0-38.5,0-57.8-0.1"/>
	<path d="M724.8,219.2h-1.9v3.9h1.9V219.2z"/>
	<path class="st2" d="M724.8,219.2h-1.9v3.9h1.9V219.2L724.8,219.2z"/>
	<path d="M664.5,219.2h-1.9v3.9h1.9V219.2z"/>
	<path class="st2" d="M664.5,219.2h-1.9v3.9h1.9V219.2L664.5,219.2z"/>
	<path class="st11" d="M784.2,344.9c0-16.1,13-29.1,29.1-29.1c16.1,0,29.1,13,29.1,29.1c0,16.1-13,29.1-29.1,29.1
		C797.3,374,784.2,361,784.2,344.9L784.2,344.9L784.2,344.9z"/>
	<path class="st12" d="M781.2,344.9c0-18.1,14.4-32.9,32.1-32.9c17.7,0,32.1,14.7,32.1,32.9c0,18.1-14.4,32.9-32.1,32.9
		C795.6,377.8,781.2,363.1,781.2,344.9L781.2,344.9L781.2,344.9z"/>
	<path class="st11" d="M778.8,344.9c0-19.1,15.5-34.5,34.5-34.5c19.1,0,34.5,15.5,34.5,34.5c0,19.1-15.5,34.5-34.5,34.5
		S778.8,364,778.8,344.9L778.8,344.9L778.8,344.9z"/>
	<path d="M842,316.3c-6.2,7.4-12.4,14.8-18.7,22.1c-1.1-0.1-2.2-0.3-3.2-0.4c-0.1-1-0.2-2.1-0.3-3.1
		C827.2,328.8,834.6,322.5,842,316.3z M813.5,344.5c16.6-0.1,33.2-0.1,49.8-0.2c-14.3,2.5-28.6,5-42.9,7.5
		C818.1,349.4,815.8,347,813.5,344.5L813.5,344.5z"/>
	<path class="st11" d="M793.5,344.9c0-10.9,8.9-19.8,19.8-19.8c10.9,0,19.8,8.9,19.8,19.8s-8.9,19.8-19.8,19.8
		C802.4,364.7,793.5,355.9,793.5,344.9L793.5,344.9L793.5,344.9z"/>
	<path class="st1" d="M820.1,338.1c14.4,2.1,28.8,4.2,43.1,6.3c-16.6,0.1-33.2,0.1-49.8,0.2C815.6,342.4,817.9,340.3,820.1,338.1
		L820.1,338.1z"/>
	<path class="st11" d="M820.1,338.1c14.4,2.1,28.8,4.2,43.1,6.3c-16.6,0.1-33.2,0.1-49.8,0.2C815.6,342.4,817.9,340.3,820.1,338.1
		L820.1,338.1L820.1,338.1L820.1,338.1z"/>
	<path d="M842,373.1c-7.4-6.2-14.8-12.4-22.1-18.7c0.1-1.1,0.3-2.2,0.4-3.2c1-0.1,2.1-0.2,3.1-0.3
		C829.6,358.3,835.8,365.7,842,373.1L842,373.1z M813.8,344.5c0.1,16.6,0.1,33.2,0.2,49.8c-2.5-14.3-5-28.6-7.5-42.9
		C808.9,349.1,811.4,346.8,813.8,344.5z"/>
	<path class="st1" d="M820.2,351.2c-2.1,14.4-4.2,28.8-6.3,43.1c-0.1-16.6-0.1-33.2-0.2-49.8C815.9,346.8,818.1,349,820.2,351.2z"/>
	<path class="st11" d="M820.2,351.2c-2.1,14.4-4.2,28.8-6.3,43.1c-0.1-16.6-0.1-33.2-0.2-49.8C815.9,346.8,818.1,349,820.2,351.2
		L820.2,351.2L820.2,351.2z"/>
	<path d="M785.5,373.1l18.7-22.1c1.1,0.1,2.2,0.3,3.2,0.4c0.1,1,0.2,2.1,0.3,3.1C800.3,360.6,792.9,366.8,785.5,373.1L785.5,373.1z
		 M814,344.9c-16.6,0.1-33.2,0.1-49.8,0.2c14.3-2.5,28.6-5,42.9-7.5C809.4,340,811.7,342.4,814,344.9L814,344.9z"/>
	<path class="st1" d="M807.3,351.4c-14.4-2.1-28.8-4.2-43.1-6.3c16.6-0.1,33.2-0.1,49.8-0.2C811.7,347.1,809.5,349.2,807.3,351.4z"
		/>
	<path class="st11" d="M807.3,351.4c-14.4-2.1-28.8-4.2-43.1-6.3c16.6-0.1,33.2-0.1,49.8-0.2C811.7,347.1,809.5,349.2,807.3,351.4
		L807.3,351.4L807.3,351.4z"/>
	<path d="M785.5,316.5l22.1,18.7c-0.1,1.1-0.3,2.2-0.4,3.2c-1,0.1-2.1,0.2-3.1,0.3C797.9,331.3,791.7,323.9,785.5,316.5L785.5,316.5
		z M813.6,345c-0.1-16.6-0.1-33.2-0.2-49.8c2.5,14.3,5,28.6,7.5,42.9C818.5,340.5,816.1,342.8,813.6,345z"/>
	<path class="st1" d="M807.1,338.5c2.1-14.4,4.2-28.8,6.3-43.1c0.1,16.6,0.1,33.2,0.2,49.8C811.4,342.9,809.3,340.7,807.1,338.5z"/>
	<path class="st11" d="M807.1,338.5c2.1-14.4,4.2-28.8,6.3-43.1c0.1,16.6,0.1,33.2,0.2,49.8C811.4,342.9,809.3,340.7,807.1,338.5
		L807.1,338.5L807.1,338.5z"/>
	<path d="M816.9,398.7h-3.3v1.8c0,0.5,0.1,0.8,0.2,1c0.2,0.2,0.5,0.3,1,0.4v0.2H812v-0.2c0.4-0.1,0.7-0.1,0.8-0.2
		c0.1-0.1,0.3-0.2,0.3-0.4c0.1-0.2,0.1-0.4,0.1-0.8v-1.8h-2.7c-0.4,0-0.6,0-0.7,0c-0.1,0-0.1,0.1-0.2,0.2c0,0.1-0.1,0.2-0.1,0.5v1.4
		c0,0.5,0,0.8,0.1,1c0.1,0.2,0.2,0.4,0.4,0.6c0.3,0.3,0.6,0.5,1.1,0.8v0.2c-0.7-0.2-1.4-0.5-2.1-0.7v-6.4h0.2v0.3
		c0,0.2,0,0.4,0.1,0.6c0.1,0.1,0.2,0.2,0.3,0.3s0.4,0.1,0.8,0.1h5.4c0.5,0,0.9-0.1,1-0.2c0.2-0.1,0.2-0.4,0.2-0.7v-0.3h0.2v6.4
		c-0.6,0-1.2,0.1-1.8,0.1v-0.2c0.4-0.1,0.7-0.2,0.9-0.3c0.2-0.1,0.3-0.3,0.4-0.5c0.1-0.2,0.1-0.5,0.1-0.9V398.7L816.9,398.7z
		 M873.4,340.2v2.3c-2.1,1.7-4.2,3.4-6.2,5.1h4.8c0.5,0,0.8-0.1,1-0.2c0.2-0.2,0.3-0.4,0.3-0.7v-0.3h0.2v2.9h-0.2V349
		c0-0.4-0.1-0.6-0.3-0.7c-0.1-0.1-0.4-0.1-0.9-0.1h-7v-0.2l6.7-5.5h-5.1c-0.5,0-0.8,0.1-1,0.2c-0.2,0.2-0.3,0.4-0.3,0.7v0.3h-0.2
		v-2.9h0.2v0.3c0,0.4,0.1,0.6,0.3,0.8c0.1,0.1,0.4,0.1,0.9,0.1h5.8c0.3-0.2,0.5-0.4,0.6-0.5c0.1-0.1,0.2-0.3,0.3-0.5
		c0-0.1,0.1-0.3,0.1-0.5H873.4z M762.5,347.2h-2.9v-0.2c0.6-0.1,1-0.2,1.3-0.4c0.3-0.2,0.6-0.5,0.8-0.8c0.2-0.4,0.3-0.7,0.3-1.1
		c0-0.4-0.1-0.8-0.4-1.1c-0.3-0.3-0.6-0.4-0.9-0.4c-0.3,0-0.5,0.1-0.7,0.3c-0.3,0.3-0.7,0.9-1.2,1.8c-0.4,0.8-0.7,1.3-1,1.6
		c-0.2,0.3-0.5,0.5-0.8,0.7c-0.3,0.2-0.6,0.2-1,0.2c-0.6,0-1.2-0.2-1.6-0.7c-0.5-0.5-0.7-1.1-0.7-1.9c0-0.2,0-0.5,0.1-0.7
		c0-0.1,0.1-0.4,0.2-0.8s0.2-0.7,0.2-0.8c0-0.1,0-0.2-0.1-0.2c-0.1-0.1-0.2-0.1-0.4-0.1v-0.2h2.9v0.2c-0.6,0.1-1,0.2-1.3,0.4
		c-0.3,0.2-0.5,0.5-0.7,0.8c-0.2,0.4-0.3,0.8-0.3,1.2c0,0.5,0.1,0.9,0.4,1.2s0.6,0.4,1,0.4c0.2,0,0.4-0.1,0.6-0.2
		c0.2-0.1,0.4-0.3,0.6-0.5c0.1-0.2,0.4-0.6,0.8-1.3c0.4-0.7,0.7-1.2,1-1.5c0.2-0.3,0.5-0.5,0.8-0.7c0.3-0.2,0.6-0.2,0.9-0.2
		c0.6,0,1.1,0.2,1.5,0.7c0.4,0.5,0.6,1,0.6,1.8c0,0.4-0.1,0.9-0.3,1.4c-0.1,0.2-0.2,0.4-0.2,0.5c0,0.1,0,0.2,0.1,0.3
		c0.1,0.1,0.2,0.1,0.4,0.2V347.2L762.5,347.2z M818.1,294.8h-0.2c0-0.2,0-0.4-0.1-0.5c-0.1-0.1-0.2-0.3-0.4-0.4
		c-0.1-0.1-0.5-0.2-1-0.4c-2.2-0.8-4.5-1.5-6.7-2.3V291c1.8-0.6,3.6-1.3,5.3-1.9c-1.8-0.6-3.6-1.3-5.3-1.9V287l6.9-2.5
		c0.5-0.2,0.8-0.3,0.9-0.4c0.2-0.1,0.3-0.2,0.3-0.3c0.1-0.1,0.1-0.3,0.1-0.6h0.2v3.1h-0.2v-0.1c0-0.2,0-0.4-0.1-0.5
		c-0.1-0.1-0.2-0.2-0.4-0.2c-0.1,0-0.5,0.1-1,0.3c-1.6,0.5-3.1,1.1-4.7,1.6c1.3,0.5,2.6,0.9,4,1.4c0.2-0.1,0.5-0.2,0.7-0.2
		c0.2-0.1,0.4-0.1,0.6-0.2c0.2-0.1,0.4-0.2,0.5-0.3c0.1-0.1,0.1-0.1,0.2-0.2c0.1-0.1,0.1-0.2,0.2-0.3c0-0.1,0-0.2,0-0.4h0.2v3.2
		h-0.2v-0.2c0-0.2,0-0.4-0.1-0.5c-0.1-0.1-0.2-0.2-0.4-0.2c-0.2,0-0.6,0.1-1.1,0.3c-1.5,0.5-3,1.1-4.5,1.6l4.6,1.6
		c0.5,0.2,0.9,0.3,1.1,0.3c0.1,0,0.2,0,0.3-0.1c0.1-0.1,0.1-0.1,0.2-0.2c0.1-0.2,0.1-0.4,0.1-0.6h0.2L818.1,294.8L818.1,294.8z
		 M844.7,312c0.4,0.3,0.6,0.6,0.6,0.9c0,0.2,0,0.3-0.1,0.4c-0.1,0.1-0.2,0.2-0.4,0.3c-0.1,0-0.3,0.1-0.6,0.1H843c-0.2,0-0.3,0-0.4,0
		c-0.1,0-0.1,0.1-0.1,0.1c0,0.1,0,0.1,0,0.3h-0.1v-1.4h0.1v0.1c0,0.1,0,0.2,0.1,0.3c0,0.1,0.1,0.1,0.2,0.1c0,0,0.1,0,0.3,0h1.2
		c0.3,0,0.4,0,0.6-0.1c0.1-0.1,0.2-0.2,0.2-0.3c0-0.2-0.1-0.5-0.4-0.7H843c-0.2,0-0.3,0-0.4,0c-0.1,0-0.1,0.1-0.1,0.1
		c0,0.1,0,0.2,0,0.3h-0.1V311h0.1v0.1c0,0.1,0,0.2,0.1,0.3c0.1,0.1,0.2,0.1,0.4,0.1h1c0.3,0,0.5,0,0.6,0c0.1,0,0.1,0,0.2-0.1
		c0,0,0-0.1,0-0.1c0-0.1,0-0.1,0-0.2c0,0,0.1,0,0.1,0c0.1,0.3,0.2,0.6,0.3,0.8v0.1L844.7,312L844.7,312z M845.2,314.1v1.2h-0.1
		c0-0.1,0-0.2-0.1-0.2c0,0-0.1-0.1-0.1-0.1c-0.1,0-0.1,0-0.2,0.1c-0.5,0.2-1.1,0.4-1.6,0.6c0.4,0.2,0.9,0.4,1.3,0.6
		c0.1-0.1,0.3-0.1,0.4-0.2c0.1,0,0.2-0.1,0.3-0.2c0,0,0-0.1,0.1-0.3h0.1v1.3h-0.1c0-0.1,0-0.3-0.1-0.3c0,0-0.1-0.1-0.2-0.1
		c0,0-0.1,0-0.1,0c-0.5,0.2-1.1,0.4-1.6,0.6l1.6,0.6c0.1,0,0.2,0.1,0.3,0.1c0,0,0.1,0,0.1-0.1c0,0,0-0.1,0.1-0.2h0.1v0.9h-0.1
		c0-0.2-0.1-0.3-0.4-0.4c-0.8-0.3-1.6-0.6-2.4-0.9v-0.1c0.6-0.2,1.2-0.5,1.8-0.7c-0.6-0.3-1.2-0.5-1.8-0.8v-0.1
		c0.8-0.3,1.6-0.6,2.4-0.9c0.1-0.1,0.3-0.1,0.3-0.2c0.1-0.1,0.1-0.1,0.1-0.3L845.2,314.1L845.2,314.1z M844.7,373
		c0.4,0.3,0.6,0.6,0.6,0.9c0,0.2,0,0.3-0.1,0.4c-0.1,0.1-0.2,0.2-0.4,0.3c-0.1,0-0.3,0.1-0.6,0.1H843c-0.2,0-0.3,0-0.4,0
		c-0.1,0-0.1,0.1-0.1,0.1c0,0.1,0,0.1,0,0.3h-0.1v-1.4h0.1v0.1c0,0.1,0,0.2,0.1,0.3c0,0.1,0.1,0.1,0.2,0.1c0,0,0.1,0,0.3,0h1.2
		c0.3,0,0.4,0,0.6-0.1c0.1-0.1,0.2-0.2,0.2-0.3c0-0.2-0.1-0.5-0.4-0.7H843c-0.2,0-0.3,0-0.4,0c-0.1,0-0.1,0.1-0.1,0.1
		c0,0.1,0,0.2,0,0.3h-0.1v-1.4h0.1v0.1c0,0.1,0,0.2,0.1,0.3c0.1,0.1,0.2,0.1,0.4,0.1h1c0.3,0,0.5,0,0.6,0c0.1,0,0.1,0,0.2-0.1
		c0,0,0-0.1,0-0.1c0-0.1,0-0.1,0-0.2c0,0,0.1,0,0.1,0c0.1,0.3,0.2,0.6,0.3,0.8v0.1H844.7L844.7,373z M844.3,375.8v1.3
		c0.2,0,0.3,0,0.4-0.1c0.1-0.1,0.2-0.1,0.3-0.2c0.1-0.1,0.1-0.2,0.1-0.3c0-0.2-0.1-0.3-0.2-0.5C844.7,375.9,844.5,375.8,844.3,375.8
		L844.3,375.8z M844.1,375.8c-0.4,0-0.7,0.1-1,0.3c-0.2,0.2-0.4,0.4-0.4,0.7c0,0.2,0.1,0.3,0.2,0.5s0.3,0.3,0.5,0.3
		c0,0,0,0.1-0.1,0.1c-0.3,0-0.5-0.2-0.8-0.4s-0.3-0.5-0.3-0.8c0-0.3,0.1-0.6,0.4-0.9c0.3-0.2,0.6-0.4,1.1-0.4c0.5,0,0.9,0.1,1.1,0.4
		c0.3,0.2,0.4,0.6,0.4,0.9c0,0.3-0.1,0.6-0.3,0.8c-0.2,0.2-0.5,0.3-0.8,0.3V375.8L844.1,375.8z M784.4,375.6h-1v-0.1
		c0.3-0.1,0.5-0.2,0.6-0.3s0.2-0.3,0.2-0.5c0-0.1,0-0.3-0.1-0.3c-0.1-0.1-0.2-0.1-0.3-0.1c-0.1,0-0.2,0-0.3,0.1
		c-0.1,0.1-0.2,0.2-0.3,0.4c-0.1,0.1-0.1,0.3-0.2,0.4c-0.2,0.4-0.5,0.6-0.8,0.6c-0.3,0-0.5-0.1-0.6-0.3c-0.2-0.2-0.2-0.4-0.2-0.6
		c0-0.2,0-0.4,0.1-0.6c0-0.1,0-0.1,0-0.2c0,0,0-0.1-0.1-0.1v-0.1h1v0.1c-0.3,0.1-0.5,0.2-0.6,0.3c-0.1,0.2-0.2,0.3-0.2,0.5
		c0,0.1,0,0.3,0.1,0.3c0.1,0.1,0.2,0.1,0.3,0.1c0.1,0,0.3,0,0.4-0.1c0.1-0.1,0.2-0.3,0.4-0.6c0.1-0.3,0.3-0.5,0.4-0.6
		c0.1-0.1,0.3-0.1,0.4-0.1c0.2,0,0.4,0.1,0.6,0.2c0.2,0.2,0.2,0.4,0.2,0.6c0,0.1,0,0.2-0.1,0.4c0,0.1,0,0.2,0,0.2c0,0,0,0.1,0,0.1
		s0,0,0.1,0.1L784.4,375.6L784.4,375.6z M783.5,376.7v1.3c0.2,0,0.3,0,0.4-0.1c0.1-0.1,0.2-0.1,0.3-0.2c0.1-0.1,0.1-0.2,0.1-0.3
		c0-0.2-0.1-0.3-0.2-0.5C783.9,376.8,783.7,376.7,783.5,376.7L783.5,376.7z M783.3,376.7c-0.4,0-0.7,0.1-1,0.3s-0.4,0.4-0.4,0.7
		c0,0.2,0.1,0.3,0.2,0.5s0.3,0.3,0.5,0.3c0,0,0,0.1-0.1,0.1c-0.3,0-0.5-0.2-0.8-0.4s-0.3-0.5-0.3-0.8c0-0.3,0.1-0.6,0.4-0.9
		c0.3-0.2,0.6-0.4,1.1-0.4c0.5,0,0.9,0.1,1.1,0.4c0.3,0.2,0.4,0.6,0.4,0.9c0,0.3-0.1,0.6-0.3,0.8c-0.2,0.2-0.5,0.3-0.8,0.3
		L783.3,376.7L783.3,376.7z M784.4,311.1h-1V311c0.3-0.1,0.5-0.2,0.6-0.3s0.2-0.3,0.2-0.5c0-0.1,0-0.3-0.1-0.3
		c-0.1-0.1-0.2-0.1-0.3-0.1c-0.1,0-0.2,0-0.3,0.1c-0.1,0.1-0.2,0.2-0.3,0.4c-0.1,0.1-0.1,0.3-0.2,0.4c-0.2,0.4-0.5,0.6-0.8,0.6
		c-0.3,0-0.5-0.1-0.6-0.3c-0.2-0.2-0.2-0.4-0.2-0.6c0-0.2,0-0.4,0.1-0.6c0-0.1,0-0.1,0-0.2c0,0,0-0.1-0.1-0.1v-0.1h1v0.1
		c-0.3,0.1-0.5,0.2-0.6,0.3c-0.1,0.2-0.2,0.3-0.2,0.5c0,0.1,0,0.3,0.1,0.3c0.1,0.1,0.2,0.1,0.3,0.1c0.1,0,0.3,0,0.4-0.1
		c0.1-0.1,0.2-0.3,0.4-0.6c0.1-0.3,0.3-0.5,0.4-0.6c0.1-0.1,0.3-0.1,0.4-0.1c0.2,0,0.4,0.1,0.6,0.2c0.2,0.2,0.2,0.4,0.2,0.6
		c0,0.1,0,0.2-0.1,0.4c0,0.1,0,0.2,0,0.2c0,0,0,0.1,0,0.1s0,0,0.1,0.1L784.4,311.1L784.4,311.1z M784.3,311.6v1.2h-0.1
		c0-0.1,0-0.2-0.1-0.2c0,0-0.1-0.1-0.1-0.1c-0.1,0-0.1,0-0.2,0.1c-0.5,0.2-1.1,0.4-1.6,0.6c0.4,0.2,0.9,0.4,1.3,0.6
		c0.1-0.1,0.3-0.1,0.4-0.2c0.1,0,0.2-0.1,0.3-0.2c0,0,0-0.1,0.1-0.3h0.1v1.3h-0.1c0-0.1,0-0.3-0.1-0.3c0,0-0.1-0.1-0.2-0.1
		c0,0-0.1,0-0.1,0c-0.5,0.2-1.1,0.4-1.6,0.6c0.5,0.2,1,0.4,1.6,0.6c0.1,0,0.2,0.1,0.3,0.1c0,0,0.1,0,0.1-0.1c0,0,0-0.1,0.1-0.2h0.1
		v0.9h-0.1c0-0.2-0.1-0.3-0.4-0.4c-0.8-0.3-1.6-0.6-2.4-0.9v-0.1c0.6-0.2,1.2-0.5,1.8-0.7c-0.6-0.3-1.2-0.5-1.8-0.8V313
		c0.8-0.3,1.6-0.6,2.4-0.9c0.1-0.1,0.3-0.1,0.3-0.2c0.1-0.1,0.1-0.1,0.1-0.3H784.3L784.3,311.6z"/>
	<path class="st12" d="M843.8,327.1c-1.9,1.1-3.7,2.3-5.6,3.4 M847.3,335.6c-1.9,0.6-3.9,1.1-5.8,1.7 M831.2,314.4
		c-1.1,1.8-2.2,3.7-3.3,5.5 M822.7,310.7c-0.6,2.1-1.2,4.3-1.8,6.4 M847.3,353.6c-1.9-0.5-3.9-1-5.8-1.5 M843.8,362
		c-1.7-0.9-3.4-1.9-5.1-2.8 M831.2,375.2l-3.1-5.1 M822.7,379c-0.5-2-1-3.9-1.6-5.9 M804.2,379c0.6-2,1.1-3.9,1.7-5.9 M795.6,375.4
		c1.1-1.7,2.2-3.4,3.3-5.1 M782.5,362.6c1.8-1,3.6-2.1,5.4-3.1 M778.8,353.6c2.1-0.4,4.2-0.8,6.3-1.3 M779.2,335.6
		c2,0.5,4,1,5.9,1.5 M783,327.1c1.7,1,3.4,2,5.1,3.1 M795.8,314.4c1.1,1.7,2.1,3.4,3.2,5.1 M804.5,310.7c0.5,2,1,4.1,1.4,6.1"/>
	<path class="st3" d="M392.2,397.7h-1 M392.2,398.9v1.2h-1v-1.2 M392.2,401.3v1.2h-1v-1.2 M392.2,403.8v1.2h-1v-1.2 M392.2,406.2
		v1.2h-1v-1.2 M392.2,408.7v1.2h-1v-1.2 M392.2,411.2v1.2h-1v-1.2 M392.2,413.6v1.2h-1v-1.2 M392.2,416.1v1.2h-1v-1.2 M392.2,418.5
		v1.2h-1v-1.2 M392.2,421v1.2h-1V421 M392.2,423.4v1.2h-1l0-1.2 M392.2,425.9v1.2h-1v-1.2 M392.2,428.3h-1"/>
	<path class="st13" d="M391.7,422.2v7.7"/>
	<path class="st3" d="M128.2,397.6h-1 M128.2,398.9v1.2h-1v-1.2 M128.2,401.3l0,1.2h-1v-1.2 M128.2,403.8v1.2h-1v-1.2 M128.2,406.2
		v1.2h-1v-1.2 M128.2,408.7v1.2h-1v-1.2 M128.2,411.1v1.2h-1v-1.2 M128.2,413.6v1.2h-1v-1.2 M128.2,416v1.2h-1V416 M128.2,418.5v1.2
		h-1v-1.2 M128.2,421v1.2h-1V421 M128.2,423.4v1.2h-1l0-1.2 M128.2,425.9v1.2h-1v-1.2 M128.2,428.3h-1"/>
	<path class="st13" d="M127.7,422.2v7.7"/>
	<path class="st3" d="M391.7,428.3l-3.1,1.5v-3.1L391.7,428.3"/>
	<path class="st13" d="M391.7,428.3l-3.1,1.5v-3.1L391.7,428.3"/>
	<path class="st3" d="M127.7,428.3l3.1-1.5v3.1L127.7,428.3"/>
	<path class="st13" d="M127.7,428.3l3.1-1.5v3.1L127.7,428.3"/>
	<text transform="matrix(1 0 0 1 248.0162 432.3283)" class="st3 st14 st15">4</text>
	<text transform="matrix(1 0 0 1 254.7603 432.3283)" class="st3 st14 st15">.</text>
	<text transform="matrix(1 0 0 1 257.9244 432.3283)" class="st3 st14 st15">2</text>
	<text transform="matrix(1 0 0 1 264.6685 432.3283)" class="st3 st14 st15">9</text>
	<path class="st13" d="M391.7,428.3l-116.3,0 M244,428.3l-116.3,0"/>
	<path class="st3" d="M123.4,371.4l-0.2-1 M122.2,371.6l-1.2,0.2l-0.2-1l1.2-0.2 M119.7,372l-1.2,0.2l-0.2-1l1.2-0.2 M117.3,372.4
		l-1.2,0.2l-0.2-1l1.2-0.2 M114.9,372.8l-1.2,0.2l-0.2-1l1.2-0.2 M112.5,373.2l-1.2,0.2l-0.2-1l1.2-0.2 M110.1,373.6l-1.2,0.2
		l-0.2-1l1.2-0.2 M107.6,374l-1.2,0.2l-0.2-1l1.2-0.2 M105.2,374.4l-1.2,0.2l-0.2-1l1.2-0.2 M102.8,374.8l-1.2,0.2l-0.2-1l1.2-0.2
		 M100.4,375.2l-1.2,0.2l-0.2-1l1.2-0.2 M97.9,375.6l-1.2,0.2l-0.2-1l1.2-0.2 M95.5,376l-1.2,0.2l-0.2-1l1.2-0.2 M93.1,376.4l-0.2-1
		"/>
	<path class="st13" d="M99.1,374.9l-7.6,1.3"/>
	<path class="st3" d="M111.5,300l-0.2-1 M110.3,300.2l-1.2,0.2l-0.2-1l1.2-0.2 M107.9,300.6l-1.2,0.2l-0.2-1l1.2-0.2 M105.5,301
		l-1.2,0.2l-0.2-1l1.2-0.2 M103.1,301.4l-1.2,0.2l-0.2-1l1.2-0.2 M100.7,301.8l-1.2,0.2l-0.2-1l1.2-0.2 M98.2,302.2l-1.2,0.2l-0.2-1
		l1.2-0.2 M95.8,302.6l-1.2,0.2l-0.2-1l1.2-0.2 M93.4,303l-1.2,0.2l-0.2-1l1.2-0.2 M91,303.4l-1.2,0.2l-0.2-1l1.2-0.2 M88.5,303.8
		l-1.2,0.2l-0.2-1l1.2-0.2 M86.1,304.3l-1.2,0.2l-0.2-1l1.2-0.2 M83.7,304.7l-1.2,0.2l-0.2-1l1.2-0.2"/>
	<path class="st13" d="M87.2,303.6l-7.6,1.3"/>
	<path class="st3" d="M93,375.9l-2-2.8l3-0.5L93,375.9"/>
	<path class="st13" d="M93,375.9l-2-2.8l3-0.5L93,375.9"/>
	<path class="st3" d="M81.2,304.6l2,2.8l-3,0.5L81.2,304.6"/>
	<path class="st13" d="M81.2,304.6l2,2.8l-3,0.5L81.2,304.6"/>
	<text transform="matrix(0.1634 0.9866 -0.9866 0.1634 81.2535 329.3616)" class="st3 st14 st15">1</text>
	<text transform="matrix(0.1634 0.9866 -0.9866 0.1634 82.355 336.0151)" class="st3 st14 st15">.</text>
	<text transform="matrix(0.1634 0.9866 -0.9866 0.1634 82.8716 339.1366)" class="st3 st14 st15">1</text>
	<text transform="matrix(0.1634 0.9866 -0.9866 0.1634 83.9742 345.7901)" class="st3 st14 st15">8</text>
	<path class="st13" d="M93,375.9l-3.3-20.2 M84.5,324.8l-3.3-20.2"/>
	<path class="st3" d="M111.5,300l-0.2-1 M110.3,300.2l-1.2,0.2l-0.2-1l1.2-0.2 M107.9,300.6l-1.2,0.2l-0.2-1l1.2-0.2 M105.5,301
		l-1.2,0.2l-0.2-1l1.2-0.2 M103.1,301.4l-1.2,0.2l-0.2-1l1.2-0.2 M100.7,301.8l-1.2,0.2l-0.2-1l1.2-0.2 M98.2,302.2l-1.2,0.2l-0.2-1
		l1.2-0.2 M95.8,302.6l-1.2,0.2l-0.2-1l1.2-0.2 M93.4,303l-1.2,0.2l-0.2-1l1.2-0.2 M91,303.4l-1.2,0.2l-0.2-1l1.2-0.2 M88.5,303.8
		l-1.2,0.2l-0.2-1l1.2-0.2 M86.1,304.3l-1.2,0.2l-0.2-1l1.2-0.2 M83.7,304.7l-1.2,0.2l-0.2-1l1.2-0.2"/>
	<path class="st13" d="M87.2,303.6l-7.6,1.3"/>
	<path class="st3" d="M104.1,254.9l-0.2-1 M102.9,255.1l-1.2,0.2l-0.2-1l1.2-0.2 M100.4,255.5l-1.2,0.2l-0.2-1l1.2-0.2 M98,255.9
		l-1.2,0.2l-0.2-1l1.2-0.2 M95.6,256.3l-1.2,0.2l-0.2-1l1.2-0.2 M93.2,256.7l-1.2,0.2l-0.2-1l1.2-0.2 M90.8,257.1l-1.2,0.2l-0.2-1
		l1.2-0.2 M88.3,257.5l-1.2,0.2l-0.2-1l1.2-0.2 M85.9,257.9l-1.2,0.2l-0.2-1l1.2-0.2 M83.5,258.3l-1.2,0.2l-0.2-1l1.2-0.2
		 M81.1,258.7l-1.2,0.2l-0.2-1l1.2-0.2 M78.6,259.1l-1.2,0.2l-0.2-1l1.2-0.2 M76.2,259.5l-1.2,0.2l-0.2-1l1.2-0.2"/>
	<path class="st13" d="M79.8,258.4l-7.6,1.3"/>
	<path class="st3" d="M81.2,304.6l-2-2.8l3-0.5L81.2,304.6"/>
	<path class="st13" d="M81.2,304.6l-2-2.8l3-0.5L81.2,304.6"/>
	<path class="st3" d="M73.7,259.4l2,2.8l-3,0.5L73.7,259.4"/>
	<path class="st13" d="M73.7,259.4l2,2.8l-3,0.5L73.7,259.4"/>
	<text transform="matrix(0.1634 0.9866 -0.9866 0.1634 71.6041 271.1057)" class="st3 st14 st15">0</text>
	<text transform="matrix(0.1634 0.9866 -0.9866 0.1634 72.7056 277.7592)" class="st3 st14 st15">.</text>
	<text transform="matrix(0.1634 0.9866 -0.9866 0.1634 73.2232 280.8808)" class="st3 st14 st15">7</text>
	<text transform="matrix(0.1634 0.9866 -0.9866 0.1634 74.3248 287.5343)" class="st3 st14 st15">5</text>
	<path class="st13" d="M81.2,304.6l-1.2-7.1 M74.9,266.5l-1.2-7.1"/>
	<path class="st3" d="M104.1,254.9l-0.2-1 M102.9,255.1l-1.2,0.2l-0.2-1l1.2-0.2 M100.4,255.5l-1.2,0.2l-0.2-1l1.2-0.2 M98,255.9
		l-1.2,0.2l-0.2-1l1.2-0.2 M95.6,256.3l-1.2,0.2l-0.2-1l1.2-0.2 M93.2,256.7l-1.2,0.2l-0.2-1l1.2-0.2 M90.8,257.1l-1.2,0.2l-0.2-1
		l1.2-0.2 M88.3,257.5l-1.2,0.2l-0.2-1l1.2-0.2 M85.9,257.9l-1.2,0.2l-0.2-1l1.2-0.2 M83.5,258.3l-1.2,0.2l-0.2-1l1.2-0.2
		 M81.1,258.7l-1.2,0.2l-0.2-1l1.2-0.2 M78.6,259.1l-1.2,0.2l-0.2-1l1.2-0.2 M76.2,259.5l-1.2,0.2l-0.2-1l1.2-0.2"/>
	<path class="st13" d="M79.8,258.4l-7.6,1.3"/>
	<path class="st3" d="M92.2,183.5l-0.2-1 M91,183.7l-1.2,0.2l-0.2-1l1.2-0.2 M88.6,184.1l-1.2,0.2l-0.2-1l1.2-0.2 M86.2,184.5
		l-1.2,0.2l-0.2-1l1.2-0.2 M83.8,184.9l-1.2,0.2l-0.2-1l1.2-0.2 M81.4,185.3l-1.2,0.2l-0.2-1l1.2-0.2 M78.9,185.7l-1.2,0.2l-0.2-1
		l1.2-0.2 M76.5,186.1l-1.2,0.2l-0.2-1l1.2-0.2 M74.1,186.5l-1.2,0.2l-0.2-1l1.2-0.2 M71.7,186.9l-1.2,0.2l-0.2-1l1.2-0.2
		 M69.2,187.3l-1.2,0.2l-0.2-1l1.2-0.2 M66.8,187.7l-1.2,0.2l-0.2-1l1.2-0.2 M64.4,188.1l-1.2,0.2l-0.2-1l1.2-0.2"/>
	<path class="st13" d="M68,187l-7.6,1.3"/>
	<path class="st3" d="M73.7,259.4l-2-2.8l3-0.5L73.7,259.4"/>
	<path class="st13" d="M73.7,259.4l-2-2.8l3-0.5L73.7,259.4"/>
	<path class="st3" d="M61.9,188l2,2.8l-3,0.5L61.9,188"/>
	<path class="st13" d="M61.9,188l2,2.8l-3,0.5L61.9,188"/>
	<text transform="matrix(0.1634 0.9866 -0.9866 0.1634 61.9546 212.8494)" class="st3 st14 st15">1</text>
	<text transform="matrix(0.1634 0.9866 -0.9866 0.1634 63.0572 219.5029)" class="st3 st14 st15">.</text>
	<text transform="matrix(0.1634 0.9866 -0.9866 0.1634 63.5738 222.6244)" class="st3 st14 st15">1</text>
	<text transform="matrix(0.1634 0.9866 -0.9866 0.1634 64.6763 229.2779)" class="st3 st14 st15">8</text>
	<path class="st13" d="M73.7,259.4l-3.3-20.2 M65.2,208.3L61.9,188"/>
	<path class="st3" d="M92.2,183.5l-0.2-1 M91,183.7l-1.2,0.2l-0.2-1l1.2-0.2 M88.6,184.1l-1.2,0.2l-0.2-1l1.2-0.2 M86.2,184.5
		l-1.2,0.2l-0.2-1l1.2-0.2 M83.8,184.9l-1.2,0.2l-0.2-1l1.2-0.2 M81.4,185.3l-1.2,0.2l-0.2-1l1.2-0.2 M78.9,185.7l-1.2,0.2l-0.2-1
		l1.2-0.2 M76.5,186.1l-1.2,0.2l-0.2-1l1.2-0.2 M74.1,186.5l-1.2,0.2l-0.2-1l1.2-0.2 M71.7,186.9l-1.2,0.2l-0.2-1l1.2-0.2
		 M69.2,187.3l-1.2,0.2l-0.2-1l1.2-0.2 M66.8,187.7l-1.2,0.2l-0.2-1l1.2-0.2 M64.4,188.1l-1.2,0.2l-0.2-1l1.2-0.2"/>
	<path class="st13" d="M68,187l-7.6,1.3"/>
	<path class="st3" d="M84.1,134.3l-0.2-1 M82.9,134.5l-1.2,0.2l-0.2-1l1.2-0.2 M80.5,134.9l-1.2,0.2l-0.2-1l1.2-0.2 M78,135.3
		l-1.2,0.2l-0.2-1l1.2-0.2 M75.6,135.7l-1.2,0.2l-0.2-1l1.2-0.2 M73.2,136.1l-1.2,0.2l-0.2-1l1.2-0.2 M70.8,136.5l-1.2,0.2l-0.2-1
		l1.2-0.2 M68.3,136.9l-1.2,0.2l-0.2-1l1.2-0.2 M65.9,137.3l-1.2,0.2l-0.2-1l1.2-0.2 M63.5,137.7l-1.2,0.2l-0.2-1l1.2-0.2
		 M61.1,138.1l-1.2,0.2l-0.2-1l1.2-0.2 M58.7,138.5l-1.2,0.2l-0.2-1l1.2-0.2 M56.2,138.9l-1.2,0.2l-0.2-1l1.2-0.2"/>
	<path class="st13" d="M59.8,137.8l-7.6,1.3"/>
	<path class="st3" d="M61.9,188l-2-2.8l3-0.5L61.9,188"/>
	<path class="st13" d="M61.9,188l-2-2.8l3-0.5L61.9,188"/>
	<path class="st3" d="M53.7,138.8l2,2.8l-3,0.5L53.7,138.8"/>
	<path class="st13" d="M53.7,138.8l2,2.8l-3,0.5L53.7,138.8"/>
	<text transform="matrix(0.1634 0.9866 -0.9866 0.1634 51.9615 152.5208)" class="st3 st14 st15">0</text>
	<text transform="matrix(0.1634 0.9866 -0.9866 0.1634 53.064 159.1743)" class="st3 st14 st15">.</text>
	<text transform="matrix(0.1634 0.9866 -0.9866 0.1634 53.5806 162.2958)" class="st3 st14 st15">8</text>
	<text transform="matrix(0.1634 0.9866 -0.9866 0.1634 54.6832 168.9493)" class="st3 st14 st15">1</text>
	<path class="st13" d="M61.9,188l-1.5-9.2 M55.3,147.9l-1.5-9.2"/>
	<path class="st3" d="M84.1,134.3l-0.2-1 M82.9,134.5l-1.2,0.2l-0.2-1l1.2-0.2 M80.5,134.9l-1.2,0.2l-0.2-1l1.2-0.2 M78,135.3
		l-1.2,0.2l-0.2-1l1.2-0.2 M75.6,135.7l-1.2,0.2l-0.2-1l1.2-0.2 M73.2,136.1l-1.2,0.2l-0.2-1l1.2-0.2 M70.8,136.5l-1.2,0.2l-0.2-1
		l1.2-0.2 M68.3,136.9l-1.2,0.2l-0.2-1l1.2-0.2 M65.9,137.3l-1.2,0.2l-0.2-1l1.2-0.2 M63.5,137.7l-1.2,0.2l-0.2-1l1.2-0.2
		 M61.1,138.1l-1.2,0.2l-0.2-1l1.2-0.2 M58.7,138.5l-1.2,0.2l-0.2-1l1.2-0.2 M56.2,138.9l-1.2,0.2l-0.2-1l1.2-0.2"/>
	<path class="st13" d="M59.8,137.8l-7.6,1.3"/>
	<path class="st3" d="M72.3,62.9l-0.2-1 M71.1,63.1l-1.2,0.2l-0.2-1l1.2-0.2 M68.6,63.5l-1.2,0.2l-0.2-1l1.2-0.2 M66.2,63.9L65,64.1
		l-0.2-1l1.2-0.2 M63.8,64.3l-1.2,0.2l-0.2-1l1.2-0.2 M61.4,64.7l-1.2,0.2l-0.2-1l1.2-0.2 M58.9,65.1l-1.2,0.2l-0.2-1l1.2-0.2
		 M56.5,65.5l-1.2,0.2l-0.2-1l1.2-0.2 M54.1,65.9l-1.2,0.2l-0.2-1l1.2-0.2 M51.7,66.3l-1.2,0.2l-0.2-1l1.2-0.2 M49.3,66.7L48,66.9
		l-0.2-1l1.2-0.2 M46.8,67.1l-1.2,0.2l-0.2-1l1.2-0.2 M44.4,67.5l-1.2,0.2l-0.2-1l1.2-0.2 M42,67.9l-0.2-1"/>
	<path class="st13" d="M48,66.4l-7.6,1.3"/>
	<path class="st3" d="M53.7,138.8l-2-2.8l3-0.5L53.7,138.8"/>
	<path class="st13" d="M53.7,138.8l-2-2.8l3-0.5L53.7,138.8"/>
	<path class="st3" d="M41.9,67.4l2,2.8l-3,0.5L41.9,67.4"/>
	<path class="st13" d="M41.9,67.4l2,2.8l-3,0.5L41.9,67.4"/>
	<text transform="matrix(0.1634 0.9866 -0.9866 0.1634 41.9703 92.1921)" class="st3 st14 st15">1</text>
	<text transform="matrix(0.1634 0.9866 -0.9866 0.1634 43.0718 98.8456)" class="st3 st14 st15">.</text>
	<text transform="matrix(0.1634 0.9866 -0.9866 0.1634 43.5894 101.9672)" class="st3 st14 st15">1</text>
	<text transform="matrix(0.1634 0.9866 -0.9866 0.1634 44.691 108.6207)" class="st3 st14 st15">8</text>
	<path class="st13" d="M53.7,138.8l-3.3-20.2 M45.3,87.6l-3.3-20.2"/>
	<path class="st3" d="M127.8,398.1l-0.2-1 M126.6,398.3l-1.2,0.2l-0.2-1l1.2-0.2 M124.2,398.7l-1.2,0.2l-0.2-1l1.2-0.2 M121.7,399.1
		l-1.2,0.2l-0.2-1l1.2-0.2 M119.3,399.5l-1.2,0.2l-0.2-1l1.2-0.2 M116.9,399.9l-1.2,0.2l-0.2-1l1.2-0.2 M114.5,400.3l-1.2,0.2
		l-0.2-1l1.2-0.2 M112.1,400.7l-1.2,0.2l-0.2-1l1.2-0.2 M109.6,401.1l-1.2,0.2l-0.2-1l1.2-0.2 M107.2,401.5l-1.2,0.2l-0.2-1l1.2-0.2
		 M104.8,401.9l-1.2,0.2l-0.2-1l1.2-0.2 M102.4,402.3l-1.2,0.2l-0.2-1l1.2-0.2 M99.9,402.7l-1.2,0.2l-0.2-1l1.2-0.2 M97.5,403.1
		l-1.2,0.2l-0.2-1l1.2-0.2 M95.1,403.5l-1.2,0.2l-0.2-1l1.2-0.2 M92.7,403.9l-1.2,0.2l-0.2-1l1.2-0.2 M90.3,404.4l-1.2,0.2l-0.2-1
		l1.2-0.2 M87.8,404.8l-1.2,0.2l-0.2-1l1.2-0.2 M85.4,405.2l-1.2,0.2l-0.2-1l1.2-0.2 M83,405.6l-1.2,0.2l-0.2-1l1.2-0.2 M80.6,406
		l-1.2,0.2l-0.2-1l1.2-0.2 M78.2,406.4l-1.2,0.2l-0.2-1l1.2-0.2 M75.7,406.8l-1.2,0.2l-0.2-1l1.2-0.2 M73.3,407.2l-1.2,0.2l-0.2-1
		l1.2-0.2 M70.9,407.6l-1.2,0.2l-0.2-1l1.2-0.2 M68.5,408l-1.2,0.2l-0.2-1l1.2-0.2"/>
	<path class="st13" d="M73.2,406.7l-7.6,1.3"/>
	<path class="st3" d="M70.8,54.1l-0.2-1 M69.6,54.3l-1.2,0.2l-0.2-1l1.2-0.2 M67.2,54.7L66,54.9l-0.2-1l1.2-0.2 M64.8,55.1l-1.2,0.2
		l-0.2-1l1.2-0.2 M62.3,55.5l-1.2,0.2l-0.2-1l1.2-0.2 M59.9,55.9l-1.2,0.2l-0.2-1l1.2-0.2 M57.5,56.3l-1.2,0.2l-0.2-1l1.2-0.2
		 M55.1,56.7l-1.2,0.2l-0.2-1l1.2-0.2 M52.6,57.1l-1.2,0.2l-0.2-1l1.2-0.2 M50.2,57.5L49,57.7l-0.2-1l1.2-0.2 M47.8,57.9l-1.2,0.2
		l-0.2-1l1.2-0.2 M45.4,58.3l-1.2,0.2l-0.2-1l1.2-0.2 M43,58.7l-1.2,0.2l-0.2-1l1.2-0.2 M40.5,59.1l-1.2,0.2l-0.2-1l1.2-0.2
		 M38.1,59.5l-1.2,0.2l-0.2-1l1.2-0.2 M35.7,59.9l-1.2,0.2l-0.2-1l1.2-0.2 M33.3,60.3l-1.2,0.2l-0.2-1l1.2-0.2 M30.9,60.7l-1.2,0.2
		l-0.2-1l1.2-0.2 M28.4,61.1l-1.2,0.2l-0.2-1l1.2-0.2 M26,61.5l-1.2,0.2l-0.2-1l1.2-0.2 M23.6,61.9l-1.2,0.2l-0.2-1l1.2-0.2
		 M21.2,62.3L20,62.5l-0.2-1l1.2-0.2 M18.7,62.7l-1.2,0.2l-0.2-1l1.2-0.2 M16.3,63.1l-1.2,0.2l-0.2-1l1.2-0.2 M13.9,63.5l-1.2,0.2
		l-0.2-1l1.2-0.2 M11.5,63.9l-1.2,0.2l-0.2-1l1.2-0.2"/>
	<path class="st13" d="M16.2,62.6l-7.6,1.3"/>
	<path class="st3" d="M67.2,407.7l-2-2.8l3-0.5L67.2,407.7"/>
	<path class="st13" d="M67.2,407.7l-2-2.8l3-0.5L67.2,407.7"/>
	<path class="st3" d="M10.2,63.6l2,2.8l-3,0.5L10.2,63.6"/>
	<path class="st13" d="M10.2,63.6l2,2.8l-3,0.5L10.2,63.6"/>
	<text transform="matrix(0.1634 0.9866 -0.9866 0.1634 32.8257 224.7547)" class="st3 st14 st15">5</text>
	<text transform="matrix(0.1634 0.9866 -0.9866 0.1634 33.9283 231.4082)" class="st3 st14 st15">.</text>
	<text transform="matrix(0.1634 0.9866 -0.9866 0.1634 34.4449 234.5297)" class="st3 st14 st15">6</text>
	<text transform="matrix(0.1634 0.9866 -0.9866 0.1634 35.5474 241.1832)" class="st3 st14 st15">8</text>
	<path class="st13" d="M67.2,407.7L41.2,251.1 M36.1,220.2L10.2,63.6"/>
	<path class="st3" d="M70.2,53.6h1 M70.2,52.4l0-1.2h1v1.2 M70.2,49.9v-1.2h1v1.2 M70.2,47.5v-1.2h1l0,1.2 M70.2,45l0-1.2h1V45
		 M70.2,42.5v-1.2h1l0,1.2 M70.2,40.1l0-1.2h1v1.2 M70.2,37.6v-1.2h1v1.2 M70.2,35.2V34h1l0,1.2 M70.2,32.7v-1.2h1v1.2 M70.2,30.3
		V29h1l0,1.2 M70.2,27.8l0-1.2h1v1.2 M70.2,25.4v-1.2h1v1.2 M70.2,22.9h1"/>
	<path class="st13" d="M70.7,29l0-7.7"/>
	<path class="st3" d="M391.3,53.6h1 M391.3,52.4l0-1.2h1v1.2 M391.3,50v-1.2h1V50 M391.3,47.5v-1.2h1l0,1.2 M391.3,45l0-1.2h1V45
		 M391.3,42.6v-1.2h1l0,1.2 M391.3,40.1l0-1.2h1v1.2 M391.3,37.7v-1.2h1v1.2 M391.3,35.2V34h1l0,1.2 M391.3,32.8v-1.2h1v1.2
		 M391.3,30.3v-1.2h1l0,1.2 M391.3,27.9l0-1.2h1v1.2 M391.3,25.4v-1.2h1v1.2 M391.3,23h1"/>
	<path class="st13" d="M391.8,29.1l0-7.7"/>
	<path class="st3" d="M70.7,22.9l3.1-1.5l0,3.1L70.7,22.9"/>
	<path class="st13" d="M70.7,22.9l3.1-1.5l0,3.1L70.7,22.9"/>
	<path class="st3" d="M391.8,23l-3.1,1.5l0-3.1L391.8,23"/>
	<path class="st13" d="M391.8,23l-3.1,1.5l0-3.1L391.8,23"/>
	<text transform="matrix(1 0 0 1 219.5445 26.9333)" class="st3 st14 st15">5</text>
	<text transform="matrix(1 0 0 1 226.2886 26.9333)" class="st3 st14 st15">.</text>
	<text transform="matrix(1 0 0 1 229.4527 26.9333)" class="st3 st14 st15">2</text>
	<text transform="matrix(1 0 0 1 236.1968 26.9333)" class="st3 st14 st15">4</text>
	<path class="st13" d="M70.7,22.9l144.8,0 M246.9,22.9l144.8,0"/>
	<path class="st3" d="M489.3,395.8l-1,0 M489.3,397l0,1.2l-1,0l0-1.2 M489.3,399.5l0,1.2l-1,0l0-1.2 M489.3,401.9l0,1.2l-1,0l0-1.2
		 M489.3,404.4l0,1.2l-1,0l0-1.2 M489.3,406.8l0,1.2h-1l0-1.2 M489.3,409.3l0,1.2h-1l0-1.2 M489.3,411.7l0,1.2h-1l0-1.2
		 M489.3,414.2l0,1.2h-1l0-1.2 M489.3,416.6l0,1.2h-1l0-1.2 M489.3,419.1l0,1.2h-1l0-1.2 M489.3,421.5l0,1.2h-1l0-1.2 M489.3,424
		l0,1.2h-1l0-1.2 M489.3,426.5h-1"/>
	<path class="st13" d="M488.8,420.3l0,7.7"/>
	<path class="st3" d="M399.6,395.8l-1,0 M399.6,397l0,1.2l-1,0l0-1.2 M399.6,399.5l0,1.2l-1,0l0-1.2 M399.6,401.9l0,1.2l-1,0l0-1.2
		 M399.6,404.4l0,1.2l-1,0l0-1.2 M399.6,406.8l0,1.2h-1l0-1.2 M399.6,409.3l0,1.2h-1l0-1.2 M399.6,411.8l0,1.2h-1l0-1.2
		 M399.6,414.2l0,1.2h-1l0-1.2 M399.6,416.7l0,1.2h-1l0-1.2 M399.6,419.1l0,1.2h-1l0-1.2 M399.6,421.6l0,1.2h-1l0-1.2 M399.6,424
		l0,1.2h-1l0-1.2 M399.6,426.5h-1"/>
	<path class="st13" d="M399.1,420.3l0,7.7"/>
	<path class="st3" d="M488.8,426.5l-3.1,1.5l0-3.1L488.8,426.5"/>
	<path class="st13" d="M488.8,426.5l-3.1,1.5l0-3.1L488.8,426.5"/>
	<path class="st3" d="M399.1,426.5l3.1-1.5l0,3.1L399.1,426.5"/>
	<path class="st13" d="M399.1,426.5l3.1-1.5l0,3.1L399.1,426.5"/>
	<text transform="matrix(1 -3.143860e-04 3.143860e-04 1 432.2663 430.4727)" class="st3 st14 st15">1</text>
	<text transform="matrix(1 -3.143860e-04 3.143860e-04 1 439.0104 430.4706)" class="st3 st14 st15">.</text>
	<text transform="matrix(1 -3.143860e-04 3.143860e-04 1 442.1745 430.4696)" class="st3 st14 st15">4</text>
	<text transform="matrix(1 -3.143860e-04 3.143860e-04 1 448.9186 430.4675)" class="st3 st14 st15">6</text>
	<path class="st13" d="M488.8,426.5l-29.2,0 M428.3,426.5l-29.2,0"/>
	<path class="st3" d="M651.1,394.3h-1 M651.1,395.5v1.2h-1v-1.2 M651.1,397.9v1.2h-1v-1.2 M651.1,400.4v1.2h-1v-1.2 M651.1,402.9
		v1.2h-1v-1.2 M651.1,405.3v1.2h-1v-1.2 M651.1,407.8v1.2h-1v-1.2 M651.1,410.2v1.2h-1v-1.2 M651.1,412.7v1.2h-1v-1.2 M651.1,415.1
		v1.2h-1v-1.2 M651.1,417.6v1.2h-1v-1.2 M651.1,420v1.2h-1V420 M651.1,422.5v1.2h-1v-1.2 M651.1,424.9h-1"/>
	<path class="st13" d="M650.6,418.8v7.7"/>
	<path class="st3" d="M559.3,394.3h-1 M559.3,395.5v1.2h-1v-1.2 M559.3,397.9v1.2h-1v-1.2 M559.3,400.4v1.2h-1v-1.2 M559.3,402.9
		v1.2h-1v-1.2 M559.3,405.3v1.2h-1v-1.2 M559.3,407.8v1.2h-1v-1.2 M559.3,410.2v1.2h-1v-1.2 M559.3,412.7v1.2h-1v-1.2 M559.3,415.1
		l0,1.2h-1v-1.2 M559.3,417.6v1.2h-1l0-1.2 M559.3,420v1.2h-1V420 M559.3,422.5v1.2h-1v-1.2"/>
	<path class="st13" d="M558.8,418.8l0,7.7"/>
	<path class="st3" d="M650.6,424.9l-3.1,1.5v-3.1L650.6,424.9"/>
	<path class="st13" d="M650.6,424.9l-3.1,1.5v-3.1L650.6,424.9"/>
	<path class="st3" d="M558.8,424.9l3.1-1.5l0,3.1L558.8,424.9"/>
	<path class="st13" d="M558.8,424.9l3.1-1.5l0,3.1L558.8,424.9"/>
	<text transform="matrix(1 0 0 1 593.0161 428.9463)" class="st3 st14 st15">1</text>
	<text transform="matrix(1 0 0 1 599.7603 428.9463)" class="st3 st14 st15">.</text>
	<text transform="matrix(1 0 0 1 602.9243 428.9463)" class="st3 st14 st15">5</text>
	<text transform="matrix(1 0 0 1 609.6685 428.9463)" class="st3 st14 st15">0</text>
	<path class="st13" d="M650.6,424.9h-30.2 M589,424.9h-30.2"/>
	<path class="st3" d="M559.3,394.3h-1 M559.3,395.5v1.2h-1v-1.2 M559.3,397.9v1.2h-1v-1.2 M559.3,400.4v1.2h-1l0-1.2 M559.3,402.9
		v1.2h-1v-1.2 M559.3,405.3l0,1.2h-1v-1.2 M559.3,407.8v1.2h-1v-1.2 M559.3,410.2v1.2h-1v-1.2 M559.3,412.7v1.2h-1l0-1.2
		 M559.3,415.1v1.2h-1v-1.2 M559.3,417.6l0,1.2h-1v-1.2 M559.3,420v1.2h-1V420 M559.3,422.5v1.2h-1v-1.2 M559.3,424.9h-1"/>
	<path class="st13" d="M558.8,418.8l0,7.7"/>
	<path class="st3" d="M496.7,371.9h-1 M496.7,373.2v1.2h-1v-1.2 M496.7,375.6v1.2h-1v-1.2 M496.7,378.1v1.2h-1v-1.2 M496.7,380.5
		v1.2h-1v-1.2 M496.7,383v1.2h-1V383 M496.7,385.4v1.2h-1v-1.2 M496.7,387.9v1.2h-1v-1.2 M496.7,390.3v1.2h-1l0-1.2 M496.7,392.8
		v1.2h-1v-1.2 M496.7,395.2v1.2h-1v-1.2 M496.7,397.7v1.2h-1v-1.2 M496.7,400.2v1.2h-1v-1.2 M496.7,402.6v1.2h-1v-1.2 M496.7,405.1
		v1.2h-1v-1.2 M496.7,407.5v1.2h-1v-1.2 M496.7,410v1.2h-1V410 M496.7,412.4v1.2h-1v-1.2 M496.7,414.9v1.2h-1v-1.2 M496.7,417.3v1.2
		h-1v-1.2 M496.7,419.8v1.2h-1v-1.2 M496.7,422.2v1.2h-1v-1.2 M496.7,424.7v0.2h-1v-0.2"/>
	<path class="st13" d="M496.2,418.8v7.7"/>
	<path class="st3" d="M558.8,424.9l-3.1,1.5l0-3.1L558.8,424.9"/>
	<path class="st13" d="M558.8,424.9l-3.1,1.5l0-3.1L558.8,424.9"/>
	<path class="st3" d="M496.2,424.9l3.1-1.5v3.1L496.2,424.9"/>
	<path class="st13" d="M496.2,424.9l3.1-1.5v3.1L496.2,424.9"/>
	<text transform="matrix(1 0 0 1 515.8238 428.9473)" class="st3 st14 st15">1</text>
	<text transform="matrix(1 0 0 1 522.5679 428.9473)" class="st3 st14 st15">.</text>
	<text transform="matrix(1 0 0 1 525.732 428.9473)" class="st3 st14 st15">0</text>
	<text transform="matrix(1 0 0 1 532.4761 428.9473)" class="st3 st14 st15">2</text>
	<path class="st13" d="M558.8,424.9h-15.6 M511.8,424.9h-15.6"/>
	<path class="st3" d="M398.7,55.5l1,0 M398.7,54.3l0-1.2l1,0l0,1.2 M398.7,51.8l0-1.2l1,0l0,1.2 M398.7,49.4l0-1.2l1,0l0,1.2
		 M398.7,46.9l0-1.2l1,0l0,1.2 M398.7,44.4v-1.2h1l0,1.2 M398.7,42l0-1.2h1l0,1.2 M398.7,39.5l0-1.2h1l0,1.2 M398.7,37.1l0-1.2h1
		l0,1.2 M398.7,34.6l0-1.2h1l0,1.2 M398.7,32.2l0-1.2h1l0,1.2 M398.7,29.7l0-1.2h1l0,1.2 M398.7,27.3V26h1l0,1.2 M398.7,24.8h1"/>
	<path class="st13" d="M399.2,30.9l0-7.7"/>
	<path class="st3" d="M649.9,55.6l1,0 M649.9,54.4l0-1.2l1,0l0,1.2 M649.9,51.9l0-1.2l1,0l0,1.2 M649.9,49.5l0-1.2l1,0l0,1.2
		 M649.9,47l0-1.2l1,0l0,1.2 M649.9,44.6v-1.2h1l0,1.2 M649.9,42.1l0-1.2h1l0,1.2 M649.9,39.7l0-1.2h1l0,1.2 M649.9,37.2l0-1.2h1
		l0,1.2 M649.9,34.7l0-1.2h1l0,1.2 M649.9,32.3l0-1.2h1l0,1.2 M649.9,29.8l0-1.2h1l0,1.2 M649.9,27.4v-1.2h1l0,1.2 M649.9,24.9h1"/>
	<path class="st13" d="M650.4,31.1l0-7.7"/>
	<path class="st3" d="M399.2,24.8l3.1-1.5l0,3.1L399.2,24.8"/>
	<path class="st13" d="M399.2,24.8l3.1-1.5l0,3.1L399.2,24.8"/>
	<path class="st3" d="M650.4,24.9l-3.1,1.5l0-3.1L650.4,24.9"/>
	<path class="st13" d="M650.4,24.9l-3.1,1.5l0-3.1L650.4,24.9"/>
	<text transform="matrix(1 4.640559e-04 -4.640559e-04 1 513.0881 28.8633)" class="st3 st14 st15">4</text>
	<text transform="matrix(1 4.640559e-04 -4.640559e-04 1 519.8322 28.8665)" class="st3 st14 st15">.</text>
	<text transform="matrix(1 4.640559e-04 -4.640559e-04 1 522.9963 28.8679)" class="st3 st14 st15">0</text>
	<text transform="matrix(1 4.640559e-04 -4.640559e-04 1 529.7404 28.871)" class="st3 st14 st15">9</text>
	<path class="st13" d="M399.2,24.8l109.9,0.1 M540.5,24.9l109.9,0.1"/>
	<path class="st3" d="M978.3,53.9v1 M979.6,53.9h1.2v1h-1.2 M982,53.9h1.2v1H982 M984.5,53.9l1.2,0v1h-1.2 M986.9,53.9h1.2v1h-1.2
		 M989.4,53.9h1.2v1l-1.2,0 M991.8,53.9h1.2v1h-1.2 M994.3,53.9h1.2v1h-1.2 M996.7,53.9h1.2v1h-1.2 M999.2,53.9h1.2v1l-1.2,0
		 M1001.7,53.9h1.2v1h-1.2 M1004.1,53.9h1.2v1h-1.2 M1006.6,53.9h1.2v1h-1.2 M1009,53.9v1"/>
	<path class="st13" d="M1002.9,54.4l7.7,0"/>
	<path class="st3" d="M978.4,218.2v1 M979.6,218.2h1.2v1h-1.2 M982,218.2h1.2v1H982 M984.5,218.2l1.2,0v1h-1.2 M986.9,218.2h1.2v1
		h-1.2 M989.4,218.2h1.2v1l-1.2,0 M991.9,218.2h1.2v1h-1.2 M994.3,218.2h1.2v1h-1.2 M996.8,218.2h1.2v1h-1.2 M999.2,218.2h1.2v1
		l-1.2,0 M1001.7,218.2h1.2v1h-1.2 M1004.1,218.2h1.2v1h-1.2 M1006.6,218.2h1.2v1h-1.2 M1009,218.2v1"/>
	<path class="st13" d="M1002.9,218.7l7.7,0"/>
	<path class="st3" d="M1009,54.4l1.5,3.1l-3.1,0L1009,54.4"/>
	<path class="st13" d="M1009,54.4l1.5,3.1l-3.1,0L1009,54.4"/>
	<path class="st3" d="M1009,218.7l-1.5-3.1l3.1,0L1009,218.7"/>
	<path class="st13" d="M1009,218.7l-1.5-3.1l3.1,0L1009,218.7"/>
	<text transform="matrix(-1.346898e-10 1 -1 -1.346898e-10 1005.0273 124.8733)" class="st3 st14 st15">2</text>
	<text transform="matrix(-1.346898e-10 1 -1 -1.346898e-10 1005.0273 131.6174)" class="st3 st14 st15">.</text>
	<text transform="matrix(-1.346898e-10 1 -1 -1.346898e-10 1005.0273 134.7815)" class="st3 st14 st15">6</text>
	<text transform="matrix(-1.346898e-10 1 -1 -1.346898e-10 1005.0273 141.5256)" class="st3 st14 st15">8</text>
	<path class="st13" d="M1009,54.4l0,66.4 M1009,152.3l0,66.4"/>
	<path class="st3" d="M978.9,218.7h-1 M978.9,219.9v1.2h-1l0-1.2 M978.9,222.4l0,1.2h-1v-1.2 M978.9,224.8l0,1.2h-1v-1.2
		 M978.8,227.3v1.2h-1v-1.2 M978.8,229.8v1.2h-1l0-1.2 M978.8,232.2v1.2h-1l0-1.2 M978.8,234.7l0,1.2h-1v-1.2 M978.8,237.1l0,1.2h-1
		v-1.2 M978.8,239.6v1.2h-1v-1.2 M978.8,242v1.2h-1l0-1.2 M978.8,244.5v1.2h-1l0-1.2 M978.8,246.9l0,1.2h-1v-1.2 M978.8,249.4h-1"/>
	<path class="st13" d="M978.3,243.3l0,7.7"/>
	<path class="st3" d="M893.6,218.7h-1 M893.6,219.9v1.2h-1v-1.2 M893.6,222.4v1.2h-1l0-1.2 M893.6,224.8l0,1.2h-1l0-1.2
		 M893.6,227.3l0,1.2h-1v-1.2 M893.6,229.7l0,1.2h-1v-1.2 M893.6,232.2v1.2h-1v-1.2 M893.6,234.7v1.2h-1l0-1.2 M893.6,237.1v1.2h-1
		l0-1.2 M893.6,239.6l0,1.2h-1v-1.2 M893.6,242l0,1.2h-1V242 M893.6,244.5v1.2h-1v-1.2 M893.6,246.9v1.2h-1l0-1.2 M893.6,249.4h-1"
		/>
	<path class="st13" d="M893.1,243.2l0,7.7"/>
	<path class="st3" d="M978.3,249.4l-3.1,1.5l0-3.1L978.3,249.4"/>
	<path class="st13" d="M978.3,249.4l-3.1,1.5l0-3.1L978.3,249.4"/>
	<path class="st3" d="M893.1,249.4l3.1-1.5l0,3.1L893.1,249.4"/>
	<path class="st13" d="M893.1,249.4l3.1-1.5l0,3.1L893.1,249.4"/>
	<text transform="matrix(1 0 0 1 924.0054 253.3863)" class="st3 st14 st15">1</text>
	<text transform="matrix(1 0 0 1 930.7495 253.3863)" class="st3 st14 st15">.</text>
	<text transform="matrix(1 0 0 1 933.9136 253.3863)" class="st3 st14 st15">3</text>
	<text transform="matrix(1 0 0 1 940.6577 253.3863)" class="st3 st14 st15">9</text>
	<path class="st13" d="M978.3,249.4l-26.9,0 M920,249.4l-26.9,0"/>
	<path class="st3" d="M893.6,218.7h-1 M893.6,219.9v1.2h-1v-1.2 M893.6,222.4v1.2h-1l0-1.2 M893.6,224.8l0,1.2h-1l0-1.2
		 M893.6,227.3l0,1.2h-1v-1.2 M893.6,229.7l0,1.2h-1v-1.2 M893.6,232.2v1.2h-1v-1.2 M893.6,234.7v1.2h-1l0-1.2 M893.6,237.1v1.2h-1
		l0-1.2 M893.6,239.6l0,1.2h-1v-1.2 M893.6,242l0,1.2h-1V242 M893.6,244.5v1.2h-1v-1.2 M893.6,246.9v1.2h-1l0-1.2 M893.6,249.4h-1"
		/>
	<path class="st13" d="M893.1,243.2l0,7.7"/>
	<path class="st3" d="M832.5,218.7h-1 M832.5,219.9l0,1.2h-1l0-1.2 M832.5,222.4l0,1.2h-1l0-1.2 M832.5,224.8l0,1.2h-1l0-1.2
		 M832.5,227.3l0,1.2h-1l0-1.2 M832.5,229.7l0,1.2h-1l0-1.2 M832.5,232.2l0,1.2h-1l0-1.2 M832.5,234.6l0,1.2h-1l0-1.2 M832.5,237.1
		l0,1.2h-1l0-1.2 M832.5,239.5l0,1.2h-1l0-1.2 M832.5,242l0,1.2h-1l0-1.2 M832.5,244.5l0,1.2h-1l0-1.2 M832.5,246.9l0,1.2h-1l0-1.2"
		/>
	<path class="st13" d="M832,243.2l0,7.7"/>
	<path class="st3" d="M893.1,249.4l-3.1,1.5l0-3.1L893.1,249.4"/>
	<path class="st13" d="M893.1,249.4l-3.1,1.5l0-3.1L893.1,249.4"/>
	<path class="st3" d="M832,249.4l3.1-1.5l0,3.1L832,249.4"/>
	<path class="st13" d="M832,249.4l3.1-1.5l0,3.1L832,249.4"/>
	<text transform="matrix(1 0 0 1 850.812 253.3712)" class="st3 st14 st15">1</text>
	<text transform="matrix(1 0 0 1 857.5562 253.3712)" class="st3 st14 st15">.</text>
	<text transform="matrix(1 0 0 1 860.7202 253.3712)" class="st3 st14 st15">0</text>
	<text transform="matrix(1 0 0 1 867.4644 253.3712)" class="st3 st14 st15">0</text>
	<path class="st13" d="M893.1,249.4l-14.9,0 M846.8,249.4l-14.9,0"/>
	<path class="st3" d="M832.5,218.7h-1 M832.5,219.9l0,1.2h-1l0-1.2 M832.5,222.4l0,1.2h-1l0-1.2 M832.5,224.8l0,1.2h-1l0-1.2
		 M832.5,227.3l0,1.2h-1l0-1.2 M832.5,229.7l0,1.2h-1l0-1.2 M832.5,232.2l0,1.2h-1l0-1.2 M832.5,234.6l0,1.2h-1l0-1.2 M832.5,237.1
		l0,1.2h-1l0-1.2 M832.5,239.5l0,1.2h-1l0-1.2 M832.5,242l0,1.2h-1l0-1.2 M832.5,244.5l0,1.2h-1l0-1.2 M832.5,246.9l0,1.2h-1l0-1.2"
		/>
	<path class="st13" d="M832,243.2l0,7.7"/>
	<path class="st3" d="M752.4,218.7h-1 M752.4,219.9v1.2h-1l0-1.2 M752.4,222.3l0,1.2h-1v-1.2 M752.4,224.8l0,1.2h-1v-1.2
		 M752.4,227.3v1.2h-1v-1.2 M752.4,229.7v1.2h-1l0-1.2 M752.4,232.2v1.2h-1l0-1.2 M752.4,234.6l0,1.2h-1v-1.2 M752.4,237.1l0,1.2h-1
		v-1.2 M752.4,239.5v1.2h-1v-1.2 M752.4,242v1.2h-1l0-1.2 M752.4,244.4v1.2h-1l0-1.2 M752.4,246.9l0,1.2h-1v-1.2 M752.4,249.3h-1"/>
	<path class="st13" d="M751.9,243.2l0,7.7"/>
	<path class="st3" d="M832,249.4l-3.1,1.5l0-3.1L832,249.4"/>
	<path class="st13" d="M832,249.4l-3.1,1.5l0-3.1L832,249.4"/>
	<path class="st3" d="M751.9,249.3l3.1-1.5l0,3.1L751.9,249.3"/>
	<path class="st13" d="M751.9,249.3l3.1-1.5l0,3.1L751.9,249.3"/>
	<text transform="matrix(1 0 0 1 780.2075 253.3572)" class="st3 st14 st15">1</text>
	<text transform="matrix(1 0 0 1 786.9517 253.3572)" class="st3 st14 st15">.</text>
	<text transform="matrix(1 0 0 1 790.1157 253.3572)" class="st3 st14 st15">3</text>
	<text transform="matrix(1 0 0 1 796.8599 253.3572)" class="st3 st14 st15">1</text>
	<path class="st13" d="M832,249.4l-24.4,0 M776.2,249.4l-24.4,0"/>
	<path class="st3" d="M978.9,218.7h-1 M978.9,219.9v1.2h-1l0-1.2 M978.9,222.4l0,1.2h-1v-1.2 M978.9,224.8l0,1.2h-1v-1.2
		 M978.8,227.3v1.2h-1v-1.2 M978.8,229.8v1.2h-1l0-1.2 M978.8,232.2v1.2h-1l0-1.2 M978.8,234.7l0,1.2h-1v-1.2 M978.8,237.1l0,1.2h-1
		v-1.2 M978.8,239.6v1.2h-1v-1.2 M978.8,242v1.2h-1l0-1.2 M978.8,244.5v1.2h-1l0-1.2 M978.8,246.9l0,1.2h-1v-1.2 M978.8,249.4l0,1.2
		h-1v-1.2 M978.8,251.8v1.2h-1v-1.2 M978.8,254.3v1.2h-1l0-1.2 M978.8,256.8v1.2h-1l0-1.2 M978.8,259.2l0,1.2h-1v-1.2 M978.8,261.7
		l0,1.2h-1v-1.2 M978.8,264.1v1.2h-1v-1.2 M978.8,266.6v1.2h-1l0-1.2 M978.8,269v1.2h-1l0-1.2 M978.8,271.5l0,1.2h-1v-1.2
		 M978.8,273.9l0,1.2h-1v-1.2 M978.8,276.4v1.2h-1v-1.2 M978.8,278.8v1.2h-1l0-1.2"/>
	<path class="st13" d="M978.3,273.9l0,7.7"/>
	<path class="st3" d="M752.4,218.7h-1 M752.4,219.9v1.2h-1l0-1.2 M752.4,222.3l0,1.2h-1v-1.2 M752.4,224.8l0,1.2h-1v-1.2
		 M752.4,227.3v1.2h-1v-1.2 M752.4,229.7v1.2h-1l0-1.2 M752.4,232.2v1.2h-1l0-1.2 M752.4,234.6l0,1.2h-1v-1.2 M752.4,237.1l0,1.2h-1
		v-1.2 M752.4,239.5v1.2h-1v-1.2 M752.4,242v1.2h-1l0-1.2 M752.4,244.4v1.2h-1l0-1.2 M752.4,246.9l0,1.2h-1v-1.2 M752.4,249.3l0,1.2
		h-1v-1.2 M752.4,251.8v1.2h-1v-1.2 M752.4,254.3v1.2h-1l0-1.2 M752.4,256.7v1.2h-1l0-1.2 M752.4,259.2l0,1.2h-1v-1.2 M752.4,261.6
		l0,1.2h-1v-1.2 M752.3,264.1v1.2h-1v-1.2 M752.3,266.5v1.2h-1l0-1.2 M752.3,269v1.2h-1l0-1.2 M752.3,271.4l0,1.2h-1v-1.2
		 M752.3,273.9l0,1.2h-1v-1.2 M752.3,276.3v1.2h-1v-1.2 M752.3,278.8v1.2h-1l0-1.2"/>
	<path class="st13" d="M751.8,273.9l0,7.7"/>
	<path class="st3" d="M978.3,280.1l-3.1,1.5l0-3.1L978.3,280.1"/>
	<path class="st13" d="M978.3,280.1l-3.1,1.5l0-3.1L978.3,280.1"/>
	<path class="st3" d="M751.8,280l3.1-1.5l0,3.1L751.8,280"/>
	<path class="st13" d="M751.8,280l3.1-1.5l0,3.1L751.8,280"/>
	<text transform="matrix(1 0 0 1 853.395 284.0542)" class="st3 st14 st15">3</text>
	<text transform="matrix(1 0 0 1 860.1392 284.0542)" class="st3 st14 st15">.</text>
	<text transform="matrix(1 0 0 1 863.3032 284.0542)" class="st3 st14 st15">6</text>
	<text transform="matrix(1 0 0 1 870.0474 284.0542)" class="st3 st14 st15">9</text>
	<path class="st13" d="M978.3,280.1l-97.5,0 M849.4,280.1l-97.5,0"/>
	<path class="st3" d="M657.4,54.5h1 M657.4,53.3v-1.2h1l0,1.2 M657.4,50.9l0-1.2h1l0,1.2 M657.4,48.4l0-1.2h1v1.2 M657.4,46v-1.2h1
		l0,1.2 M657.4,43.5l0-1.2h1l0,1.2 M657.4,41l0-1.2h1V41 M657.4,38.6v-1.2h1l0,1.2 M657.4,36.1l0-1.2h1l0,1.2 M657.4,33.7l0-1.2h1
		l0,1.2 M657.4,31.2l0-1.2h1l0,1.2 M657.4,28.8l0-1.2h1v1.2 M657.4,26.3v-1.2h1l0,1.2 M657.4,23.9h1"/>
	<path class="st13" d="M657.9,30l0-7.7"/>
	<path class="st3" d="M977.8,54.4h1 M977.8,53.2V52h1l0,1.2 M977.8,50.8l0-1.2h1l0,1.2 M977.8,48.3l0-1.2h1v1.2 M977.8,45.8v-1.2h1
		l0,1.2 M977.8,43.4l0-1.2h1l0,1.2 M977.8,40.9l0-1.2h1v1.2 M977.8,38.5v-1.2h1l0,1.2 M977.8,36l0-1.2h1l0,1.2 M977.8,33.6l0-1.2h1
		l0,1.2 M977.8,31.1l0-1.2h1l0,1.2 M977.8,28.7l0-1.2h1v1.2 M977.8,26.2V25h1l0,1.2 M977.8,23.8h1"/>
	<path class="st13" d="M978.3,29.9l0-7.7"/>
	<path class="st3" d="M657.9,23.9l3.1-1.5l0,3.1L657.9,23.9"/>
	<path class="st13" d="M657.9,23.9l3.1-1.5l0,3.1L657.9,23.9"/>
	<path class="st3" d="M978.3,23.8l-3.1,1.5l0-3.1L978.3,23.8"/>
	<path class="st13" d="M978.3,23.8l-3.1,1.5l0-3.1L978.3,23.8"/>
	<text transform="matrix(1 -3.427487e-04 3.427487e-04 1 806.4055 27.8108)" class="st3 st14 st15">5</text>
	<text transform="matrix(1 -3.427487e-04 3.427487e-04 1 813.1496 27.8085)" class="st3 st14 st15">.</text>
	<text transform="matrix(1 -3.427487e-04 3.427487e-04 1 816.3137 27.8074)" class="st3 st14 st15">2</text>
	<text transform="matrix(1 -3.427487e-04 3.427487e-04 1 823.0578 27.8051)" class="st3 st14 st15">2</text>
	<path class="st13" d="M657.9,23.9l144.5,0 M833.8,23.8l144.5,0"/>
	<path class="st3" d="M725.8,217.4l-1,0 M725.8,218.6l0,1.2l-1,0l0-1.2 M725.8,221.1l0,1.2l-1,0l0-1.2 M725.8,223.5l0,1.2l-1,0
		l0-1.2 M725.8,226l0,1.2l-1,0l0-1.2 M725.8,228.4l0,1.2l-1,0l0-1.2 M725.8,230.9l0,1.2l-1,0l0-1.2 M725.8,233.3l0,1.2l-1,0l0-1.2
		 M725.8,235.8l0,1.2l-1,0l0-1.2 M725.8,238.2l0,1.2l-1,0l0-1.2 M725.8,240.7l0,1.2l-1,0l0-1.2 M725.8,243.2l0,1.2l-1,0l0-1.2
		 M725.8,245.6l0,1.2l-1,0l0-1.2 M725.8,248.1l-1,0"/>
	<path class="st13" d="M725.3,241.9l0,7.7"/>
	<path class="st3" d="M663,217.4l-1,0 M663,218.6l0,1.2l-1,0l0-1.2 M663,221.1l0,1.2l-1,0l0-1.2 M663,223.5l0,1.2l-1,0l0-1.2
		 M663,226l0,1.2l-1,0l0-1.2 M663,228.4l0,1.2l-1,0l0-1.2 M663,230.9l0,1.2l-1,0l0-1.2 M663,233.3l0,1.2l-1,0l0-1.2 M663,235.8
		l0,1.2l-1,0l0-1.2 M663,238.2l0,1.2l-1,0l0-1.2 M663,240.7l0,1.2l-1,0l0-1.2 M663,243.2l0,1.2l-1,0l0-1.2 M663,245.6l0,1.2l-1,0
		l0-1.2 M663,248.1l-1,0"/>
	<path class="st13" d="M662.5,241.9l0,7.7"/>
	<path class="st3" d="M725.3,248.1l-3.1,1.5l0-3.1L725.3,248.1"/>
	<path class="st13" d="M725.3,248.1l-3.1,1.5l0-3.1L725.3,248.1"/>
	<path class="st3" d="M662.5,248.1l3.1-1.5l0,3.1L662.5,248.1"/>
	<path class="st13" d="M662.5,248.1l3.1-1.5l0,3.1L662.5,248.1"/>
	<text transform="matrix(1 0 0 1 682.1772 252.0663)" class="st3 st14 st15">1</text>
	<text transform="matrix(1 0 0 1 688.9214 252.0663)" class="st3 st14 st15">.</text>
	<text transform="matrix(1 0 0 1 692.0854 252.0663)" class="st3 st14 st15">0</text>
	<text transform="matrix(1 0 0 1 698.8296 252.0663)" class="st3 st14 st15">2</text>
	<path class="st13" d="M725.3,248.1l-15.7,0 M678.2,248.1l-15.7,0"/>
	<path class="st3" d="M745,217.4h-1 M745,218.6l0,1.2h-1l0-1.2 M745,221.1l0,1.2h-1l0-1.2 M745,223.5l0,1.2h-1l0-1.2 M745,226l0,1.2
		h-1l0-1.2 M745,228.4l0,1.2h-1l0-1.2 M745,230.9l0,1.2h-1l0-1.2 M745,233.3l0,1.2h-1l0-1.2 M745,235.8l0,1.2h-1l0-1.2 M745,238.3
		l0,1.2h-1l0-1.2 M745,240.7l0,1.2h-1l0-1.2 M745,243.2l0,1.2h-1l0-1.2 M745,245.6l0,1.2h-1l0-1.2 M745,248.1l0,1.2h-1l0-1.2
		 M745,250.5l0,1.2h-1l0-1.2 M745,253l0,1.2h-1l0-1.2 M745,255.4l0,1.2h-1l0-1.2 M745,257.9l0,1.2h-1l0-1.2 M745,260.3l0,1.2h-1
		l0-1.2 M745,262.8l0,1.2h-1l0-1.2 M745,265.3l0,1.2h-1l0-1.2 M745,267.7l0,1.2h-1l0-1.2 M745,270.2l0,1.2h-1l0-1.2 M745,272.6v1.2
		h-1l0-1.2 M745,275.1l0,1.2h-1l0-1.2 M745,277.5l0,1.2h-1l0-1.2"/>
	<path class="st13" d="M744.5,272.6l0,7.7"/>
	<path class="st3" d="M658.4,217.4h-1 M658.4,218.6l0,1.2h-1l0-1.2 M658.4,221.1l0,1.2h-1l0-1.2 M658.4,223.5l0,1.2h-1l0-1.2
		 M658.4,226l0,1.2h-1l0-1.2 M658.4,228.4l0,1.2h-1l0-1.2 M658.4,230.9l0,1.2h-1l0-1.2 M658.4,233.3l0,1.2h-1l0-1.2 M658.4,235.8
		l0,1.2h-1l0-1.2 M658.4,238.2l0,1.2h-1l0-1.2 M658.4,240.7l0,1.2h-1l0-1.2 M658.4,243.2l0,1.2h-1l0-1.2 M658.4,245.6l0,1.2h-1
		l0-1.2 M658.4,248.1l0,1.2h-1l0-1.2 M658.4,250.5l0,1.2h-1l0-1.2 M658.4,253l0,1.2h-1l0-1.2 M658.4,255.4l0,1.2h-1l0-1.2
		 M658.4,257.9l0,1.2h-1l0-1.2 M658.4,260.3l0,1.2h-1l0-1.2 M658.4,262.8l0,1.2h-1l0-1.2 M658.4,265.2l0,1.2h-1l0-1.2 M658.4,267.7
		l0,1.2h-1l0-1.2 M658.4,270.2v1.2h-1l0-1.2 M658.4,272.6v1.2h-1l0-1.2 M658.4,275.1l0,1.2h-1l0-1.2 M658.4,277.5l0,1.2h-1l0-1.2"/>
	<path class="st13" d="M657.9,272.6l0,7.7"/>
	<path class="st3" d="M744.5,278.8l-3.1,1.5l0-3.1L744.5,278.8"/>
	<path class="st13" d="M744.5,278.8l-3.1,1.5l0-3.1L744.5,278.8"/>
	<path class="st3" d="M657.9,278.7l3.1-1.5l0,3.1L657.9,278.7"/>
	<path class="st13" d="M657.9,278.7l3.1-1.5l0,3.1L657.9,278.7"/>
	<text transform="matrix(1 0 0 1 689.4692 282.7483)" class="st3 st14 st15">1</text>
	<text transform="matrix(1 0 0 1 696.2134 282.7483)" class="st3 st14 st15">.</text>
	<text transform="matrix(1 0 0 1 699.3774 282.7483)" class="st3 st14 st15">4</text>
	<text transform="matrix(1 0 0 1 706.1216 282.7483)" class="st3 st14 st15">1</text>
	<path class="st13" d="M744.5,278.8l-27.6,0 M685.5,278.7l-27.6,0"/>
	<text transform="matrix(1 0 0 1 207.6353 218.7541)" class="st0 st14 st16">Living</text>
	<text transform="matrix(1 0 0 1 202.5826 231.7577)" class="st0 st14 st16">26.7 m</text>
	<text transform="matrix(1 0 0 1 407.7505 339.4884)" class="st0 st14 st16">Buanderie</text>
	<text transform="matrix(1 0 0 1 415.3482 351.4917)" class="st0 st14 st16">2.36 m</text>
	<text transform="matrix(1 0 0 1 396.566 219.4728)" class="st0 st14 st16">Salle de bains</text>
	<text transform="matrix(1 0 0 1 415.3638 231.4759)" class="st0 st14 st16">2.98 m</text>
	<text transform="matrix(1 0 0 1 534.5269 271.6916)" class="st0 st14 st16">Chambre 1</text>
	<text transform="matrix(1 0 0 1 544.6451 283.6948)" class="st0 st14 st16">9.07 m</text>
	<text transform="matrix(1 0 0 1 494.3365 98.9181)" class="st0 st14 st16">Escalier</text>
	<text transform="matrix(1 0 0 1 495.4185 111.9218)" class="st0 st14 st16">6.70 m</text>
	<text transform="matrix(1 0 0 1 779.3003 128.4175)" class="st0 st14 st16">Chambre 2</text>
	<text transform="matrix(1 0 0 1 789.4185 140.4206)" class="st0 st14 st16">12.4 m</text>
	<text transform="matrix(1 0 0 1 684.7339 183.7541)" class="st0 st14 st16">Wc</text>
	<text transform="matrix(1 0 0 1 672.0825 196.7577)" class="st0 st14 st16">1.22 m</text>
	<text transform="matrix(1 0 0 1 458.6031 534.0978)" class="st0 st17 st18">1er tage</text>
</g>
</svg>
