<?xml version="1.0" encoding="utf-8"?>
<!-- Generator: Adobe Illustrator 24.1.2, SVG Export Plug-In . SVG Version: 6.00 Build 0)  -->
<svg version="1.1" id="Capa_1" xmlns="http://www.w3.org/2000/svg" xmlns:xlink="http://www.w3.org/1999/xlink" x="0px" y="0px"
	 viewBox="0 0 49.6 44.2" style="enable-background:new 0 0 49.6 44.2;" xml:space="preserve">
<style type="text/css">
	.st0{fill:#383838;}
</style>
<path class="st0" d="M49.6,44.2h-4.9L42.5,41H7l-2.2,3.2H0V23.7h49.6V44.2z M45.9,42h1.6V25.9H2.2V42h1.6l2.2-3.2h37.8L45.9,42z"/>
<path class="st0" d="M47.4,16.2h-2.2v-14H24.8V0h22.6L47.4,16.2z"/>
<path class="st0" d="M4.3,16.2H2.2V0h22.6v2.2H4.3V16.2z"/>
<path class="st0" d="M5.4,25l-2.1-0.5L6.7,9.7h5.2v2.2H8.4L5.4,25z"/>
<path class="st0" d="M44.2,25l-3-13.2h-3.5V9.7h5.2l3.4,14.8L44.2,25z"/>
<path class="st0" d="M22.6,15.1H14c-1.8,0-3.2-1.4-3.2-3.2V9.7c0-1.8,1.4-3.2,3.2-3.2h8.6c1.8,0,3.2,1.4,3.2,3.2v2.2
	C25.9,13.6,24.4,15.1,22.6,15.1z M14,8.6c-0.6,0-1.1,0.5-1.1,1.1v2.2c0,0.6,0.5,1.1,1.1,1.1h8.6c0.6,0,1.1-0.5,1.1-1.1v0V9.7
	c0-0.6-0.5-1.1-1.1-1.1c0,0,0,0,0,0H14z"/>
<path class="st0" d="M35.6,15.1H27c-1.8,0-3.2-1.4-3.2-3.2V9.7c0-1.8,1.5-3.2,3.2-3.2h8.6c1.8,0,3.2,1.4,3.2,3.2v2.2
	C38.8,13.6,37.4,15.1,35.6,15.1z M27,8.6c-0.6,0-1.1,0.5-1.1,1.1v2.2c0,0.6,0.5,1.1,1.1,1.1h8.6c0.6,0,1.1-0.5,1.1-1.1V9.7
	c0-0.6-0.5-1.1-1.1-1.1H27z"/>
</svg>
