<?xml version="1.0" encoding="utf-8"?>
<!-- Generator: Adobe Illustrator 24.1.2, SVG Export Plug-In . SVG Version: 6.00 Build 0)  -->
<svg version="1.1" id="Capa_1" xmlns="http://www.w3.org/2000/svg" xmlns:xlink="http://www.w3.org/1999/xlink" x="0px" y="0px"
	 viewBox="0 0 41.5 52.5" style="enable-background:new 0 0 41.5 52.5;" xml:space="preserve">
<style type="text/css">
	.st0{fill:#383838;}
</style>
<path class="st0" d="M20.8,0c-0.3,0-0.6,0.3-0.6,0.6v2.6C9.1,3.2,0,10.4,0,19.5c0,1.4,0.4,2.8,1.3,3.9c1.1,1.7,3.3,2.2,5,1.1
	c0.5-0.3,0.9-0.7,1.1-1.1c0-0.3,0.3-0.6,0.6-1c1.1,2.3,3.8,3.3,6.1,2.2c1.1-0.5,1.9-1.4,2.3-2.5c0.6,1.5,1.9,2.6,3.6,2.9v13.9H6.8
	l-1.3-5.5c0-0.3-0.3-0.3-0.6-0.3H0.6c-0.3,0-0.6,0.3-0.6,0.6v18.2c0,0.3,0.3,0.6,0.6,0.6h11c0.3,0,0.6-0.3,0.6-0.6v-5.5h7.8V49
	l-3.2,1c-0.3,0-0.3,0-0.3,0.3l-0.6,1.3c-0.3,0.3,0,0.6,0.3,1c0.4,0,0.7-0.1,1-0.3l0.3-1l3.2-1l3.2,1l0.6,1c0,0.3,0.6,0.3,1,0.3
	c0.2-0.3,0.4-0.6,0.3-1l-0.6-1.3L25,49.9l-3.2-1v-2.6h7.5v5.5c0,0.3,0.3,0.6,0.6,0.6h11c0.3,0,0.6-0.3,0.6-0.6V33.7
	c0-0.3-0.3-0.6-0.6-0.6h-4.2c-0.2,0-0.3,0.1-0.3,0.3c0,0,0,0,0,0l-1.6,5.5H21.4V25c1.5-0.3,2.8-1.2,3.6-2.6c1.1,2.3,3.9,3.3,6.2,2.2
	c1-0.5,1.8-1.3,2.2-2.2c0.3,0.3,0.3,0.6,0.6,1c1.1,1.7,3.3,2.2,5,1.1c0.5-0.3,0.9-0.7,1.1-1.1c0.8-1,1.2-2.3,1.3-3.6
	c0-9.1-9.1-16.2-20.1-16.5V0.6C21.4,0.3,21.1,0,20.8,0z M20.8,4.2c0.3,0,0.6,0.3,1.3,1c0.6,1,1.1,2.1,1.3,3.2
	c0.8,3.4,1.2,6.9,1.3,10.4h-7.5c-0.1-3.5,0.4-7,1.3-10.4c0.3-1.1,0.7-2.2,1.3-3.2C20.1,4.5,20.4,4.2,20.8,4.2z M18.5,4.5
	c-0.6,1.1-1,2.3-1.3,3.6c-0.9,3.5-1.3,7.1-1.3,10.7H8.4C8.8,11.7,13,5.8,18.5,4.5z M22.7,4.5c5.5,1.3,9.7,7.1,10.1,14.3h-7.1
	c0-3.6-0.4-7.2-1.3-10.7C24.1,6.8,23.5,5.6,22.7,4.5L22.7,4.5z M14.3,5.2c-4.3,3.2-6.9,8.2-6.8,13.6H1.3C1.6,12.6,6.8,7.1,14.3,5.2
	L14.3,5.2z M27.2,5.2c7.1,1.9,12.6,7.5,13,13.6H34C34,13.5,31.5,8.5,27.2,5.2L27.2,5.2z M1.3,20.1h5.8c-0.1,0.9-0.3,1.8-0.6,2.6
	c-1,1.2-2.7,1.3-3.9,0.3c-0.1-0.1-0.2-0.2-0.3-0.3C1.7,22,1.3,21,1.3,20.1z M8.8,20.1h7.1c0,2-1.6,3.5-3.6,3.6
	C10.1,23.7,8.4,22,8.8,20.1L8.8,20.1z M17.2,20.1h7.1c0,2-1.6,3.6-3.6,3.6S17.2,22.1,17.2,20.1z M25.6,20.1h7.1c0,2-1.6,3.6-3.6,3.6
	S25.6,22.1,25.6,20.1z M34.4,20.1h5.8c0,0.9-0.4,1.9-1,2.6c-0.7,1.2-2.2,1.6-3.3,0.9c-0.4-0.2-0.7-0.5-0.9-0.9
	C34.6,21.9,34.4,21,34.4,20.1L34.4,20.1z M1.3,34h3.2l1.6,7.5c0,0.3,0.3,0.6,0.6,0.6H10l1,1.9v7.1H1.3V34z M37,34h3.2v17.2h-9.7
	v-7.1l1-1.9h3.2c0.2,0,0.5-0.1,0.6-0.3L37,34z M7.1,40.2h27.2v0.6h-3.2c-0.3,0-0.3,0-0.6,0.3l-1.3,2.3v1.6H12.3v-1.6L11,40.9
	c0-0.3-0.3-0.3-0.6-0.3H7.1V40.2z"/>
</svg>
